<svg width="74" height="85" viewBox="0 0 74 85" fill="none" xmlns="http://www.w3.org/2000/svg">
<g clip-path="url(#clip0_292_36)">
<path d="M36.908 53.8136C49.5591 53.8136 59.8149 43.5579 59.8149 30.9068C59.8149 18.2557 49.5591 8 36.908 8C24.257 8 14.0012 18.2557 14.0012 30.9068C14.0012 43.5579 24.257 53.8136 36.908 53.8136Z" fill="#F7931E"/>
<mask id="path-2-outside-1_292_36" maskUnits="userSpaceOnUse" x="25.1639" y="20.7961" width="24" height="24" fill="black">
<rect fill="white" x="25.1639" y="20.7961" width="24" height="24"/>
<path d="M35.9165 43.7961L28.8719 25.0305H28.752C28.7919 25.4302 28.8219 25.9398 28.8419 26.5593C28.8819 27.1789 28.9119 27.8583 28.9318 28.5978C28.9518 29.3172 28.9618 30.0567 28.9618 30.8161V43.7961H26.4737V22.3925H30.4607L37.0556 39.9291H37.1755L43.8904 22.3925H47.8474V43.7961H45.1794V30.6362C45.1794 29.9367 45.1894 29.2473 45.2094 28.5678C45.2294 27.8683 45.2594 27.2188 45.2993 26.6193C45.3393 25.9998 45.3693 25.4802 45.3893 25.0605H45.2693L38.1348 43.7961H35.9165Z"/>
</mask>
<path d="M35.9165 43.7961L28.8719 25.0305H28.752C28.7919 25.4302 28.8219 25.9398 28.8419 26.5593C28.8819 27.1789 28.9119 27.8583 28.9318 28.5978C28.9518 29.3172 28.9618 30.0567 28.9618 30.8161V43.7961H26.4737V22.3925H30.4607L37.0556 39.9291H37.1755L43.8904 22.3925H47.8474V43.7961H45.1794V30.6362C45.1794 29.9367 45.1894 29.2473 45.2094 28.5678C45.2294 27.8683 45.2594 27.2188 45.2993 26.6193C45.3393 25.9998 45.3693 25.4802 45.3893 25.0605H45.2693L38.1348 43.7961H35.9165Z" fill="#2E3192"/>
<path d="M35.9165 43.7961L35.2463 44.0477L35.4206 44.512H35.9165V43.7961ZM28.8719 25.0305L29.5421 24.7789L29.3678 24.3147H28.8719V25.0305ZM28.752 25.0305V24.3147H27.961L28.0397 25.1017L28.752 25.0305ZM28.8419 26.5593L28.1264 26.5824L28.1268 26.5939L28.1276 26.6054L28.8419 26.5593ZM28.9318 28.5978L28.2163 28.6171L28.2163 28.6176L28.9318 28.5978ZM28.9618 43.7961V44.512H29.6777V43.7961H28.9618ZM26.4737 43.7961H25.7579V44.512H26.4737V43.7961ZM26.4737 22.3925V21.6767H25.7579V22.3925H26.4737ZM30.4607 22.3925L31.1307 22.1405L30.9563 21.6767H30.4607V22.3925ZM37.0556 39.9291L36.3856 40.1811L36.56 40.6449H37.0556V39.9291ZM37.1755 39.9291V40.6449H37.668L37.844 40.1851L37.1755 39.9291ZM43.8904 22.3925V21.6767H43.398L43.2219 22.1365L43.8904 22.3925ZM47.8474 22.3925H48.5632V21.6767H47.8474V22.3925ZM47.8474 43.7961V44.512H48.5632V43.7961H47.8474ZM45.1794 43.7961H44.4636V44.512H45.1794V43.7961ZM45.2094 28.5678L45.9249 28.5888L45.9249 28.5882L45.2094 28.5678ZM45.2993 26.6193L46.0136 26.6669L46.0137 26.6654L45.2993 26.6193ZM45.3893 25.0605L46.1043 25.0945L46.14 24.3446H45.3893V25.0605ZM45.2693 25.0605V24.3446H44.776L44.6004 24.8057L45.2693 25.0605ZM38.1348 43.7961V44.512H38.6282L38.8038 44.0509L38.1348 43.7961ZM35.9165 43.7961L36.5867 43.5446L29.5421 24.7789L28.8719 25.0305L28.2017 25.2821L35.2463 44.0477L35.9165 43.7961ZM28.8719 25.0305V24.3147H28.752V25.0305V25.7463H28.8719V25.0305ZM28.752 25.0305L28.0397 25.1017C28.0774 25.4793 28.1067 25.9714 28.1264 26.5824L28.8419 26.5593L29.5574 26.5362C29.5371 25.9082 29.5064 25.3811 29.4643 24.9593L28.752 25.0305ZM28.8419 26.5593L28.1276 26.6054C28.1669 27.2145 28.1965 27.885 28.2163 28.6171L28.9318 28.5978L29.6474 28.5784C29.6272 27.8317 29.5969 27.1432 29.5563 26.5132L28.8419 26.5593ZM28.9318 28.5978L28.2163 28.6176C28.2361 29.3301 28.246 30.0629 28.246 30.8161H28.9618H29.6777C29.6777 30.0504 29.6676 29.3043 29.6474 28.5779L28.9318 28.5978ZM28.9618 30.8161H28.246V43.7961H28.9618H29.6777V30.8161H28.9618ZM28.9618 43.7961V43.0803H26.4737V43.7961V44.512H28.9618V43.7961ZM26.4737 43.7961H27.1896V22.3925H26.4737H25.7579V43.7961H26.4737ZM26.4737 22.3925V23.1084H30.4607V22.3925V21.6767H26.4737V22.3925ZM30.4607 22.3925L29.7906 22.6445L36.3856 40.1811L37.0556 39.9291L37.7257 39.6771L31.1307 22.1405L30.4607 22.3925ZM37.0556 39.9291V40.6449H37.1755V39.9291V39.2133H37.0556V39.9291ZM37.1755 39.9291L37.844 40.1851L44.5589 22.6485L43.8904 22.3925L43.2219 22.1365L36.507 39.6731L37.1755 39.9291ZM43.8904 22.3925V23.1084H47.8474V22.3925V21.6767H43.8904V22.3925ZM47.8474 22.3925H47.1315V43.7961H47.8474H48.5632V22.3925H47.8474ZM47.8474 43.7961V43.0803H45.1794V43.7961V44.512H47.8474V43.7961ZM45.1794 43.7961H45.8952V30.6362H45.1794H44.4636V43.7961H45.1794ZM45.1794 30.6362H45.8952C45.8952 29.9436 45.9051 29.2611 45.9249 28.5888L45.2094 28.5678L44.4939 28.5467C44.4737 29.2334 44.4636 29.9299 44.4636 30.6362H45.1794ZM45.2094 28.5678L45.9249 28.5882C45.9447 27.8964 45.9743 27.2561 46.0136 26.6669L45.2993 26.6193L44.5851 26.5717C44.5444 27.1816 44.514 27.8402 44.4938 28.5473L45.2094 28.5678ZM45.2993 26.6193L46.0137 26.6654C46.0538 26.0435 46.084 25.5196 46.1043 25.0945L45.3893 25.0605L44.6742 25.0264C44.6545 25.4407 44.6248 25.956 44.585 26.5732L45.2993 26.6193ZM45.3893 25.0605V24.3446H45.2693V25.0605V25.7763H45.3893V25.0605ZM45.2693 25.0605L44.6004 24.8057L37.4658 43.5414L38.1348 43.7961L38.8038 44.0509L45.9383 25.3152L45.2693 25.0605ZM38.1348 43.7961V43.0803H35.9165V43.7961V44.512H38.1348V43.7961Z" fill="#2E3192" mask="url(#path-2-outside-1_292_36)"/>
<path d="M23.6539 18.095C27.452 17.799 32.3408 19.2794 36.3844 21.1174C36.852 21.33 37.1939 21.4925 37.3746 21.594C37.4083 21.6129 37.4351 21.6307 37.4567 21.6448C37.4476 21.6435 37.4374 21.6437 37.4264 21.6418C37.2537 21.612 36.8832 21.5101 36.277 21.3245C35.6717 21.1391 34.8326 20.8702 33.7242 20.5071C30.5653 19.4721 28.1439 19.0849 26.4205 19.2219C24.6968 19.3591 23.6621 20.0221 23.2975 21.094C22.9345 22.1613 23.2417 23.6207 24.1608 25.3372C25.0807 27.0552 26.6179 29.0389 28.7301 31.1604C31.8364 34.3016 34.551 36.2978 38.2526 38.1917L39.0065 38.5696C41.566 39.8168 43.8478 40.5644 45.7545 40.8616C47.6604 41.1586 49.1957 41.0058 50.2584 40.4475C51.3239 39.8877 51.9105 38.9221 51.9205 37.6067C51.9299 36.3759 51.4348 34.8398 50.36 33.0413L50.1373 32.678L48.8785 30.6965L49.9313 31.8655C50.5477 32.5793 51.5634 34.0904 52.3053 35.4524L52.6041 36.0237C53.3844 37.6214 53.7728 38.8989 53.7682 39.9788C53.7635 41.0562 53.3676 41.9399 52.5739 42.7522C51.7296 43.5964 50.8653 43.6885 48.7291 43.7834C46.6 43.8781 44.2239 43.4087 43.8297 43.301C38.592 41.8708 32.6451 38.1827 28.0074 34.0422C25.6889 31.9722 23.699 29.7897 22.2887 27.7219C20.8777 25.6531 20.0504 23.7031 20.0504 22.0959C20.0504 20.7768 20.229 19.8357 20.7643 19.1956C21.2988 18.5565 22.1958 18.2086 23.6539 18.095Z" fill="white" stroke="white" stroke-width="0.0715838"/>
</g>
<path d="M8.33503 70.7013V69.5413H9.38503V70.7013H8.33503ZM5.45503 73.1813C4.87503 73.1813 4.35503 73.0746 3.89503 72.8613C3.4417 72.6546 3.08503 72.3646 2.82503 71.9913C2.56503 71.618 2.43503 71.1946 2.43503 70.7213C2.43503 70.588 2.44503 70.4113 2.46503 70.1913C2.48503 69.9713 2.5117 69.7246 2.54503 69.4513C2.58503 69.178 2.62503 68.9013 2.66503 68.6213C2.7117 68.3346 2.75503 68.058 2.79503 67.7913L4.11503 67.9713C4.0417 68.418 3.97837 68.828 3.92503 69.2013C3.87837 69.568 3.8417 69.8813 3.81503 70.1413C3.78837 70.4013 3.77503 70.5913 3.77503 70.7113C3.77503 70.978 3.8417 71.208 3.97503 71.4013C4.10837 71.5946 4.29837 71.7446 4.54503 71.8513C4.79837 71.9646 5.1017 72.0213 5.45503 72.0213C5.8217 72.0213 6.11837 71.968 6.34503 71.8613C6.5717 71.7546 6.73503 71.608 6.83503 71.4213C6.9417 71.2346 6.99503 71.0246 6.99503 70.7913V63.6313H8.33503V70.7913C8.33503 71.2713 8.20837 71.6913 7.95503 72.0513C7.70837 72.4113 7.36837 72.688 6.93503 72.8813C6.5017 73.0813 6.00837 73.1813 5.45503 73.1813ZM9.38503 70.7013V69.5413C9.42503 69.5413 9.45503 69.5546 9.47503 69.5813C9.5017 69.608 9.5217 69.648 9.53503 69.7013C9.55503 69.7546 9.56837 69.818 9.57503 69.8913C9.5817 69.958 9.58503 70.0346 9.58503 70.1213C9.58503 70.208 9.5817 70.288 9.57503 70.3613C9.56837 70.4346 9.55503 70.498 9.53503 70.5513C9.5217 70.598 9.5017 70.6346 9.47503 70.6613C9.45503 70.688 9.42503 70.7013 9.38503 70.7013ZM12.3086 70.7013V69.5413H13.5586V70.7013H12.3086ZM13.5586 70.7013V69.5413C13.5919 69.5413 13.6219 69.5546 13.6486 69.5813C13.6752 69.608 13.6952 69.648 13.7085 69.7013C13.7219 69.7546 13.7319 69.818 13.7386 69.8913C13.7519 69.958 13.7585 70.0346 13.7585 70.1213C13.7585 70.208 13.7519 70.288 13.7386 70.3613C13.7319 70.4346 13.7219 70.498 13.7085 70.5513C13.6952 70.598 13.6752 70.6346 13.6486 70.6613C13.6285 70.688 13.5985 70.7013 13.5586 70.7013ZM9.38855 70.7013C9.34855 70.7013 9.31855 70.688 9.29855 70.6613C9.27188 70.6346 9.25188 70.598 9.23855 70.5513C9.21855 70.498 9.20522 70.4346 9.19855 70.3613C9.19188 70.288 9.18855 70.208 9.18855 70.1213C9.18855 70.0013 9.19522 69.9013 9.20855 69.8213C9.22188 69.7346 9.24522 69.668 9.27855 69.6213C9.30522 69.568 9.34188 69.5413 9.38855 69.5413V70.7013ZM9.38855 70.7013V69.5413H11.7585L10.9785 70.1913V65.6813H12.3086V70.7013H9.38855ZM9.74855 72.8313V71.6913H11.0385V72.8313H9.74855ZM11.5685 72.8313V71.6913H12.8585V72.8313H11.5685ZM13.5585 70.7013V69.5413H21.1185L19.9885 70.5213V68.4213C19.9885 68.0413 19.9385 67.738 19.8385 67.5113C19.7385 67.278 19.5918 67.108 19.3985 67.0013C19.2118 66.8946 18.9851 66.8413 18.7185 66.8413C18.4318 66.8413 18.1585 66.898 17.8985 67.0113C17.6451 67.1246 17.4085 67.2713 17.1885 67.4513C16.9685 67.6313 16.7651 67.8246 16.5785 68.0313C16.3918 68.238 16.2251 68.438 16.0785 68.6313C15.9318 68.818 15.8051 68.978 15.6985 69.1113L15.3985 68.1413C15.6585 67.828 15.8918 67.5413 16.0985 67.2813C16.3051 67.0213 16.5018 66.7913 16.6885 66.5913C16.8818 66.3913 17.0818 66.2246 17.2885 66.0913C17.5018 65.958 17.7318 65.858 17.9785 65.7913C18.2318 65.718 18.5251 65.6813 18.8585 65.6813C19.3051 65.6813 19.6851 65.758 19.9985 65.9113C20.3118 66.058 20.5651 66.2613 20.7585 66.5213C20.9585 66.7813 21.1018 67.0746 21.1885 67.4013C21.2818 67.728 21.3285 68.068 21.3285 68.4213V70.7013H13.5585ZM14.8185 69.5413V65.6813H16.1585V69.5413H14.8185ZM13.5585 70.7013C13.5185 70.7013 13.4885 70.688 13.4685 70.6613C13.4418 70.6346 13.4218 70.598 13.4085 70.5513C13.3885 70.498 13.3751 70.4346 13.3685 70.3613C13.3618 70.288 13.3585 70.208 13.3585 70.1213C13.3585 70.0013 13.3651 69.9013 13.3785 69.8213C13.3918 69.7346 13.4151 69.668 13.4485 69.6213C13.4751 69.568 13.5118 69.5413 13.5585 69.5413V70.7013ZM27.1555 70.7013V69.5413H28.2055V70.7013H27.1555ZM24.4555 73.1813C24.2088 73.1813 23.9488 73.1613 23.6755 73.1213C23.4088 73.088 23.1222 73.0413 22.8155 72.9813L23.0155 71.9113C23.3488 71.9513 23.6322 71.9813 23.8655 72.0013C24.0988 72.0213 24.2955 72.0313 24.4555 72.0313C24.9355 72.0313 25.2822 71.9446 25.4955 71.7713C25.7088 71.598 25.8155 71.338 25.8155 70.9913V66.6013L26.1455 66.8413H24.8955C24.6222 66.8413 24.4022 66.8746 24.2355 66.9413C24.0688 67.0013 23.9455 67.1313 23.8655 67.3313C23.7922 67.5246 23.7555 67.8213 23.7555 68.2213C23.7555 68.6013 23.7888 68.888 23.8555 69.0813C23.9288 69.268 24.0488 69.3913 24.2155 69.4513C24.3822 69.5113 24.6088 69.5413 24.8955 69.5413H25.8155V70.7013H24.8955C24.3288 70.7013 23.8622 70.6113 23.4955 70.4313C23.1288 70.2513 22.8555 69.978 22.6755 69.6113C22.5022 69.2446 22.4155 68.7813 22.4155 68.2213C22.4155 67.6613 22.5022 67.1946 22.6755 66.8213C22.8555 66.4413 23.1288 66.158 23.4955 65.9713C23.8622 65.778 24.3288 65.6813 24.8955 65.6813H27.1555V70.9913C27.1555 71.4446 27.0422 71.8346 26.8155 72.1613C26.5955 72.4946 26.2822 72.748 25.8755 72.9213C25.4755 73.0946 25.0022 73.1813 24.4555 73.1813ZM28.2055 70.7013V69.5413C28.2455 69.5413 28.2755 69.5546 28.2955 69.5813C28.3222 69.608 28.3422 69.648 28.3555 69.7013C28.3755 69.7546 28.3888 69.818 28.3955 69.8913C28.4022 69.958 28.4055 70.0346 28.4055 70.1213C28.4055 70.208 28.4022 70.288 28.3955 70.3613C28.3888 70.4346 28.3755 70.498 28.3555 70.5513C28.3422 70.598 28.3222 70.6346 28.2955 70.6613C28.2755 70.688 28.2455 70.7013 28.2055 70.7013ZM31.1269 70.7013V69.5413H32.3769V70.7013H31.1269ZM32.3769 70.7013V69.5413C32.4102 69.5413 32.4402 69.5546 32.4669 69.5813C32.4936 69.608 32.5136 69.648 32.5269 69.7013C32.5402 69.7546 32.5502 69.818 32.5569 69.8913C32.5702 69.958 32.5769 70.0346 32.5769 70.1213C32.5769 70.208 32.5702 70.288 32.5569 70.3613C32.5502 70.4346 32.5402 70.498 32.5269 70.5513C32.5136 70.598 32.4936 70.6346 32.4669 70.6613C32.4469 70.688 32.4169 70.7013 32.3769 70.7013ZM28.2069 70.7013C28.1669 70.7013 28.1369 70.688 28.1169 70.6613C28.0902 70.6346 28.0702 70.598 28.0569 70.5513C28.0369 70.498 28.0236 70.4346 28.0169 70.3613C28.0102 70.288 28.0069 70.208 28.0069 70.1213C28.0069 70.0013 28.0136 69.9013 28.0269 69.8213C28.0402 69.7346 28.0636 69.668 28.0969 69.6213C28.1236 69.568 28.1602 69.5413 28.2069 69.5413V70.7013ZM28.2069 70.7013V69.5413H30.5769L29.7969 70.1913V65.6813H31.1269V70.7013H28.2069ZM28.9169 64.7613V63.6213H30.2069V64.7613H28.9169ZM30.7369 64.7613V63.6213H32.0269V64.7613H30.7369ZM33.5068 70.7013V63.6313H34.8468V70.7013H33.5068ZM32.3768 70.7013V69.5413H33.5068V70.7013H32.3768ZM32.3768 70.7013C32.3368 70.7013 32.3068 70.688 32.2868 70.6613C32.2602 70.6346 32.2402 70.598 32.2268 70.5513C32.2068 70.498 32.1935 70.4346 32.1868 70.3613C32.1802 70.288 32.1768 70.208 32.1768 70.1213C32.1768 70.0013 32.1835 69.9013 32.1968 69.8213C32.2102 69.7346 32.2335 69.668 32.2668 69.6213C32.2935 69.568 32.3302 69.5413 32.3768 69.5413V70.7013ZM36.4507 70.7013V63.6313H37.7807V70.7013H36.4507ZM44.3132 73.1813C43.8798 73.1813 43.4765 73.118 43.1032 72.9913C42.7365 72.8713 42.4165 72.7013 42.1432 72.4813C41.8698 72.268 41.6532 72.0113 41.4932 71.7113C41.3398 71.418 41.2632 71.098 41.2632 70.7513C41.2632 70.6246 41.2732 70.4613 41.2932 70.2613C41.3132 70.0613 41.3398 69.8313 41.3732 69.5713C41.4132 69.3113 41.4565 69.0346 41.5032 68.7413L42.8232 68.9213C42.7565 69.3413 42.7032 69.7146 42.6632 70.0413C42.6232 70.368 42.6032 70.598 42.6032 70.7313C42.6032 70.9846 42.6732 71.208 42.8132 71.4013C42.9532 71.5946 43.1498 71.7446 43.4032 71.8513C43.6632 71.9646 43.9665 72.0213 44.3132 72.0213H47.1432C47.5765 72.0213 47.8998 71.9113 48.1132 71.6913C48.3265 71.478 48.4332 71.1513 48.4332 70.7113C48.4332 70.4913 48.3965 70.3213 48.3232 70.2013C48.2498 70.0746 48.1198 69.968 47.9332 69.8813C47.7465 69.788 47.4765 69.688 47.1232 69.5813C46.7232 69.4546 46.3732 69.3346 46.0732 69.2213C45.7732 69.108 45.5265 68.9846 45.3332 68.8513C45.1398 68.7113 44.9932 68.5446 44.8932 68.3513C44.7998 68.158 44.7532 67.9146 44.7532 67.6213C44.7532 67.1813 44.8498 66.8213 45.0432 66.5413C45.2365 66.2546 45.5132 66.0413 45.8732 65.9013C46.2332 65.7546 46.6598 65.6813 47.1532 65.6813L47.1032 66.8413C46.8565 66.8413 46.6565 66.868 46.5032 66.9213C46.3565 66.968 46.2498 67.0446 46.1832 67.1513C46.1165 67.2513 46.0832 67.3846 46.0832 67.5513C46.0832 67.6913 46.1165 67.808 46.1832 67.9013C46.2565 67.988 46.3598 68.0646 46.4932 68.1313C46.6265 68.198 46.7798 68.258 46.9532 68.3113C47.1265 68.358 47.3165 68.4146 47.5232 68.4813C47.8898 68.588 48.2098 68.708 48.4832 68.8413C48.7632 68.968 48.9965 69.1146 49.1832 69.2813C49.3765 69.448 49.5198 69.6513 49.6132 69.8913C49.7132 70.1246 49.7632 70.4046 49.7632 70.7313C49.7632 71.2113 49.6565 71.6346 49.4432 72.0013C49.2298 72.368 48.9265 72.6546 48.5332 72.8613C48.1465 73.0746 47.6832 73.1813 47.1432 73.1813H44.3132ZM47.1032 66.8413L47.1532 65.6813H50.5032V66.8413H47.1032ZM50.5032 70.7013V65.6813H51.8332V70.7013H50.5032ZM51.8332 70.7013V69.5413H52.6432C52.8565 69.5413 53.0198 69.5113 53.1332 69.4513C53.2532 69.3846 53.3332 69.2546 53.3732 69.0613C53.4198 68.8613 53.4432 68.5646 53.4432 68.1713V66.2013H54.7832V68.1713C54.7832 68.7646 54.7065 69.248 54.5532 69.6213C54.3998 69.9946 54.1665 70.268 53.8532 70.4413C53.5398 70.6146 53.1365 70.7013 52.6432 70.7013H51.8332ZM55.2132 70.7013C54.9398 70.7013 54.6698 70.6513 54.4032 70.5513C54.1365 70.4446 53.8865 70.288 53.6532 70.0813L54.4832 69.2313C54.6098 69.338 54.7332 69.418 54.8532 69.4713C54.9732 69.518 55.0932 69.5413 55.2132 69.5413H57.0932L56.3932 70.1713V67.9513C56.3932 67.8446 56.3798 67.6846 56.3532 67.4713C56.3332 67.2513 56.2998 67.0046 56.2532 66.7313C56.2132 66.4513 56.1665 66.168 56.1132 65.8813L57.4232 65.6813C57.4698 65.9213 57.5165 66.1913 57.5632 66.4913C57.6098 66.7846 57.6465 67.0646 57.6732 67.3313C57.7065 67.5913 57.7232 67.798 57.7232 67.9513V70.7013H55.2132ZM43.9732 75.0713V73.9313H45.2632V75.0713H43.9732ZM45.7932 75.0713V73.9313H47.0832V75.0713H45.7932ZM59.3218 70.7013V63.6313H60.6518V70.7013H59.3218ZM63.8765 70.7013V69.5413H65.1665V70.7013H63.8765ZM61.9365 73.1813C61.8499 73.1813 61.7565 73.178 61.6565 73.1713C61.5565 73.1646 61.4532 73.1546 61.3465 73.1413L61.3965 72.0013C61.5032 72.008 61.6032 72.0146 61.6965 72.0213C61.7965 72.028 61.8699 72.0313 61.9165 72.0313C62.1765 72.0313 62.3832 71.928 62.5365 71.7213C62.6965 71.5146 62.7765 71.2246 62.7765 70.8513V65.6813H64.1165V70.8513C64.1165 71.3046 64.0232 71.708 63.8365 72.0613C63.6565 72.4146 63.4032 72.688 63.0765 72.8813C62.7499 73.0813 62.3699 73.1813 61.9365 73.1813ZM65.1665 70.7013V69.5413C65.2065 69.5413 65.2365 69.5546 65.2565 69.5813C65.2832 69.608 65.3032 69.648 65.3165 69.7013C65.3365 69.7546 65.3499 69.818 65.3565 69.8913C65.3632 69.958 65.3665 70.0346 65.3665 70.1213C65.3665 70.208 65.3632 70.288 65.3565 70.3613C65.3499 70.4346 65.3365 70.498 65.3165 70.5513C65.3032 70.598 65.2832 70.6346 65.2565 70.6613C65.2365 70.688 65.2065 70.7013 65.1665 70.7013ZM65.1698 70.7013V69.5413H70.3598L69.7498 70.0613V68.2213C69.7498 67.8613 69.7098 67.5813 69.6298 67.3813C69.5498 67.1746 69.4098 67.0313 69.2098 66.9513C69.0165 66.8646 68.7465 66.8213 68.3998 66.8213C68.1265 66.8213 67.8565 66.8413 67.5898 66.8813C67.3298 66.9146 67.1265 66.9613 66.9798 67.0213L67.8098 66.2413C67.7698 66.3946 67.7298 66.588 67.6898 66.8213C67.6565 67.0546 67.6265 67.3046 67.5998 67.5713C67.5731 67.8313 67.5598 68.088 67.5598 68.3413C67.5598 68.5746 67.5698 68.818 67.5898 69.0713C67.6165 69.3246 67.6431 69.548 67.6698 69.7413C67.7031 69.9346 67.7298 70.068 67.7498 70.1413L66.4798 70.4913C66.4531 70.398 66.4198 70.2446 66.3798 70.0313C66.3398 69.818 66.3031 69.5646 66.2698 69.2713C66.2431 68.978 66.2298 68.668 66.2298 68.3413C66.2298 68.008 66.2465 67.688 66.2798 67.3813C66.3131 67.068 66.3498 66.788 66.3898 66.5413C66.4365 66.288 66.4798 66.0846 66.5198 65.9313C66.6798 65.8713 66.9298 65.8113 67.2698 65.7513C67.6098 65.6913 67.9865 65.6613 68.3998 65.6613C68.9998 65.6613 69.4965 65.7446 69.8898 65.9113C70.2898 66.078 70.5865 66.348 70.7798 66.7213C70.9798 67.0946 71.0798 67.598 71.0798 68.2313V70.7013H65.1698ZM65.1698 70.7013C65.1298 70.7013 65.0998 70.688 65.0798 70.6613C65.0531 70.6346 65.0331 70.598 65.0198 70.5513C64.9998 70.498 64.9865 70.4346 64.9798 70.3613C64.9731 70.288 64.9698 70.208 64.9698 70.1213C64.9698 70.0013 64.9765 69.9013 64.9898 69.8213C65.0031 69.7346 65.0265 69.668 65.0598 69.6213C65.0865 69.568 65.1231 69.5413 65.1698 69.5413V70.7013Z" fill="white"/>
<defs>
<clipPath id="clip0_292_36">
<rect width="45.8136" height="45.8852" fill="white" transform="translate(14.0012 8)"/>
</clipPath>
</defs>
</svg>
