<svg width="63" height="61" viewBox="0 0 63 61" fill="none" xmlns="http://www.w3.org/2000/svg">
<g clip-path="url(#clip0_287_12)">
<path d="M31.5 41.9376C42.5285 41.9376 51.4688 32.9973 51.4688 21.9688C51.4688 10.9403 42.5285 2 31.5 2C20.4716 2 11.5312 10.9403 11.5312 21.9688C11.5312 32.9973 20.4716 41.9376 31.5 41.9376Z" fill="#F7931E"/>
<mask id="path-2-outside-1_287_12" maskUnits="userSpaceOnUse" x="21.5189" y="13.181" width="20" height="21" fill="black">
<rect fill="white" x="21.5189" y="13.181" width="20" height="21"/>
<path d="M30.4315 33.181L24.2904 16.8222H24.1859C24.2207 17.1706 24.2468 17.6149 24.2643 18.1549C24.2991 18.695 24.3252 19.2873 24.3427 19.9319C24.3601 20.5591 24.3688 21.2037 24.3688 21.8657V33.181H22.1998V14.5226H25.6754L31.4245 29.8099H31.529L37.3826 14.5226H40.8321V33.181H38.5063V21.7089C38.5063 21.0992 38.515 20.4981 38.5325 19.9058C38.5499 19.296 38.576 18.7298 38.6109 18.2072C38.6457 17.6671 38.6718 17.2142 38.6893 16.8483H38.5847L32.3653 33.181H30.4315Z"/>
</mask>
<path d="M30.4315 33.181L24.2904 16.8222H24.1859C24.2207 17.1706 24.2468 17.6149 24.2643 18.1549C24.2991 18.695 24.3252 19.2873 24.3427 19.9319C24.3601 20.5591 24.3688 21.2037 24.3688 21.8657V33.181H22.1998V14.5226H25.6754L31.4245 29.8099H31.529L37.3826 14.5226H40.8321V33.181H38.5063V21.7089C38.5063 21.0992 38.515 20.4981 38.5325 19.9058C38.5499 19.296 38.576 18.7298 38.6109 18.2072C38.6457 17.6671 38.6718 17.2142 38.6893 16.8483H38.5847L32.3653 33.181H30.4315Z" fill="#2E3192"/>
<path d="M30.4315 33.181L29.8473 33.4003L29.9992 33.805H30.4315V33.181ZM24.2904 16.8222L24.8746 16.6029L24.7227 16.1982H24.2904V16.8222ZM24.1859 16.8222V16.1982H23.4963L23.5649 16.8843L24.1859 16.8222ZM24.2643 18.1549L23.6406 18.1751L23.6409 18.1851L23.6415 18.1951L24.2643 18.1549ZM24.3427 19.9319L23.7189 19.9488L23.7189 19.9493L24.3427 19.9319ZM24.3688 33.181V33.805H24.9928V33.181H24.3688ZM22.1998 33.181H21.5758V33.805H22.1998V33.181ZM22.1998 14.5226V13.8985H21.5758V14.5226H22.1998ZM25.6754 14.5226L26.2595 14.3029L26.1074 13.8985H25.6754V14.5226ZM31.4245 29.8099L30.8404 30.0296L30.9925 30.4339H31.4245V29.8099ZM31.529 29.8099V30.4339H31.9583L32.1118 30.0331L31.529 29.8099ZM37.3826 14.5226V13.8985H36.9534L36.7999 14.2994L37.3826 14.5226ZM40.8321 14.5226H41.4561V13.8985H40.8321V14.5226ZM40.8321 33.181V33.805H41.4561V33.181H40.8321ZM38.5063 33.181H37.8823V33.805H38.5063V33.181ZM38.5325 19.9058L39.1562 19.9241L39.1562 19.9236L38.5325 19.9058ZM38.6109 18.2072L39.2335 18.2487L39.2336 18.2474L38.6109 18.2072ZM38.6893 16.8483L39.3126 16.878L39.3437 16.2243H38.6893V16.8483ZM38.5847 16.8483V16.2243H38.1546L38.0016 16.6263L38.5847 16.8483ZM32.3653 33.181V33.805H32.7954L32.9484 33.403L32.3653 33.181ZM30.4315 33.181L31.0157 32.9617L24.8746 16.6029L24.2904 16.8222L23.7062 17.0415L29.8473 33.4003L30.4315 33.181ZM24.2904 16.8222V16.1982H24.1859V16.8222V17.4462H24.2904V16.8222ZM24.1859 16.8222L23.5649 16.8843C23.5979 17.2134 23.6234 17.6424 23.6406 18.1751L24.2643 18.1549L24.888 18.1348C24.8703 17.5874 24.8436 17.1278 24.8068 16.7601L24.1859 16.8222ZM24.2643 18.1549L23.6415 18.1951C23.6758 18.7261 23.7016 19.3106 23.7189 19.9488L24.3427 19.9319L24.9665 19.9151C24.9489 19.2641 24.9224 18.6639 24.887 18.1148L24.2643 18.1549ZM24.3427 19.9319L23.7189 19.9493C23.7361 20.5704 23.7448 21.2092 23.7448 21.8657H24.3688H24.9928C24.9928 21.1982 24.984 20.5479 24.9664 19.9146L24.3427 19.9319ZM24.3688 21.8657H23.7448V33.181H24.3688H24.9928V21.8657H24.3688ZM24.3688 33.181V32.5569H22.1998V33.181V33.805H24.3688V33.181ZM22.1998 33.181H22.8238V14.5226H22.1998H21.5758V33.181H22.1998ZM22.1998 14.5226V15.1466H25.6754V14.5226V13.8985H22.1998V14.5226ZM25.6754 14.5226L25.0913 14.7422L30.8404 30.0296L31.4245 29.8099L32.0086 29.5903L26.2595 14.3029L25.6754 14.5226ZM31.4245 29.8099V30.4339H31.529V29.8099V29.1859H31.4245V29.8099ZM31.529 29.8099L32.1118 30.0331L37.9654 14.7457L37.3826 14.5226L36.7999 14.2994L30.9463 29.5868L31.529 29.8099ZM37.3826 14.5226V15.1466H40.8321V14.5226V13.8985H37.3826V14.5226ZM40.8321 14.5226H40.2081V33.181H40.8321H41.4561V14.5226H40.8321ZM40.8321 33.181V32.5569H38.5063V33.181V33.805H40.8321V33.181ZM38.5063 33.181H39.1304V21.7089H38.5063H37.8823V33.181H38.5063ZM38.5063 21.7089H39.1304C39.1304 21.1051 39.139 20.5102 39.1562 19.9241L38.5325 19.9058L37.9087 19.8875C37.8911 20.4861 37.8823 21.0932 37.8823 21.7089H38.5063ZM38.5325 19.9058L39.1562 19.9236C39.1735 19.3205 39.1993 18.7623 39.2335 18.2487L38.6109 18.2072L37.9882 18.1657C37.9528 18.6974 37.9263 19.2716 37.9087 19.888L38.5325 19.9058ZM38.6109 18.2072L39.2336 18.2474C39.2686 17.7053 39.2949 17.2486 39.3126 16.878L38.6893 16.8483L38.0659 16.8186C38.0487 17.1798 38.0228 17.629 37.9881 18.167L38.6109 18.2072ZM38.6893 16.8483V16.2243H38.5847V16.8483V17.4724H38.6893V16.8483ZM38.5847 16.8483L38.0016 16.6263L31.7821 32.9589L32.3653 33.181L32.9484 33.403L39.1679 17.0704L38.5847 16.8483ZM32.3653 33.181V32.5569H30.4315V33.181V33.805H32.3653V33.181Z" fill="#2E3192" mask="url(#path-2-outside-1_287_12)"/>
<path d="M19.9459 10.8008C23.2568 10.5428 27.5186 11.8333 31.0436 13.4355C31.4511 13.6208 31.7493 13.7621 31.9069 13.8506C31.9355 13.8667 31.9586 13.8815 31.9772 13.8936C31.9696 13.8925 31.9609 13.8932 31.9518 13.8916C31.8012 13.8656 31.4782 13.7771 30.9498 13.6152C30.4222 13.4536 29.6912 13.2198 28.7252 12.9033C25.971 12.0009 23.8594 11.6636 22.3571 11.7832C20.8546 11.9028 19.9532 12.4807 19.6354 13.415C19.3191 14.3454 19.5862 15.6171 20.3873 17.1133C21.1892 18.6109 22.5295 20.34 24.3707 22.1895C27.2591 25.1103 29.7597 26.8959 33.3297 28.6484C35.5607 29.7355 37.5495 30.3874 39.2115 30.6465C40.873 30.9054 42.2118 30.7728 43.1383 30.2861C44.067 29.7982 44.5787 28.9561 44.5875 27.8096C44.5962 26.6652 44.1044 25.2175 43.0328 23.5127L41.9342 21.7832L42.8531 22.8037C43.3904 23.4258 44.2757 24.7434 44.9225 25.9307L45.1832 26.4297C45.8633 27.8223 46.2009 28.9357 46.1969 29.877C46.1929 30.8162 45.8487 31.5868 45.1569 32.2949C44.421 33.0308 43.6672 33.1116 41.8053 33.1943C39.9492 33.2768 37.8774 32.8673 37.5338 32.7734C32.9679 31.5266 27.7837 28.3115 23.7408 24.7021C21.7197 22.8976 19.9849 20.995 18.7555 19.1924C17.5256 17.389 16.8043 15.6891 16.8043 14.2881C16.8043 13.1382 16.9599 12.3178 17.4264 11.7598C17.8923 11.2025 18.6746 10.8999 19.9459 10.8008Z" fill="white" stroke="white" stroke-width="0.0624025"/>
</g>
<path d="M11.6115 55H10.7925V55.098C10.7925 55.3967 10.7108 55.6697 10.5475 55.917C10.3888 56.169 10.1601 56.3673 9.86147 56.512C9.56747 56.6613 9.22447 56.736 8.83247 56.736C8.4358 56.736 8.08114 56.6613 7.76847 56.512C7.46047 56.3673 7.2178 56.169 7.04047 55.917C6.8678 55.665 6.78147 55.3873 6.78147 55.084C6.78147 54.7853 6.86547 54.1157 7.03347 53.075L7.91547 53.124C7.85947 53.4787 7.80814 53.8473 7.76147 54.23C7.7148 54.6127 7.69147 54.8647 7.69147 54.986C7.69147 55.1493 7.73814 55.2987 7.83147 55.434C7.9248 55.574 8.05547 55.6837 8.22347 55.763C8.39614 55.8423 8.58747 55.882 8.79747 55.882C9.00747 55.882 9.1918 55.8423 9.35047 55.763C9.5138 55.6837 9.63747 55.5763 9.72147 55.441C9.81014 55.3057 9.85447 55.1587 9.85447 55V50.1H10.7925V54.146H11.6115V55ZM14.6453 54.146V55H11.6143V54.146H12.6573V51.5H13.5953V54.146H14.6453ZM12.2233 55.56H12.9443V56.435H12.2233V55.56ZM13.2873 55.56H14.0083V56.435H13.2873V55.56ZM18.4646 51.43C19.0526 51.43 19.4679 51.612 19.7106 51.976C19.9579 52.3353 20.0816 52.7577 20.0816 53.243V55H14.6426V54.146H15.5666V51.5H16.5046V52.62C16.7146 52.3587 16.9036 52.1463 17.0716 51.983C17.2442 51.8197 17.4449 51.6867 17.6736 51.584C17.9022 51.4813 18.1659 51.43 18.4646 51.43ZM18.2476 52.284C17.9162 52.284 17.5919 52.4403 17.2746 52.753C16.9619 53.061 16.7052 53.418 16.5046 53.824V54.146H19.1436V53.425C19.1436 53.1077 19.0642 52.8393 18.9056 52.62C18.7516 52.396 18.5322 52.284 18.2476 52.284ZM24.876 55H23.994C23.8913 56.1573 23.406 56.736 22.538 56.736C22.286 56.736 21.88 56.6917 21.32 56.603V55.756C21.88 55.84 22.258 55.882 22.454 55.882C22.6033 55.882 22.72 55.8563 22.804 55.805C22.888 55.7537 22.9486 55.665 22.986 55.539C23.028 55.413 23.049 55.2333 23.049 55H22.237C21.271 55 20.788 54.454 20.788 53.362C20.788 52.8067 20.8486 52.3843 20.97 52.095C21.096 51.8057 21.271 51.612 21.495 51.514C21.7236 51.4113 22.0223 51.36 22.391 51.36C22.6616 51.36 22.9486 51.3787 23.252 51.416C23.5553 51.4487 23.8096 51.4883 24.015 51.535V54.146H24.876V55ZM21.726 53.306C21.726 53.544 21.7773 53.7447 21.88 53.908C21.9826 54.0667 22.188 54.146 22.496 54.146H23.077V52.249C22.8996 52.2257 22.7293 52.214 22.566 52.214C22.37 52.214 22.2136 52.242 22.097 52.298C21.9803 52.3493 21.8893 52.4543 21.824 52.613C21.7586 52.767 21.726 52.998 21.726 53.306ZM27.907 54.146V55H24.876V54.146H25.919V51.5H26.857V54.146H27.907ZM25.485 49.974H26.206V50.849H25.485V49.974ZM26.549 49.974H27.27V50.849H26.549V49.974ZM29.6965 50.1V55H27.8975V54.146H28.7585V50.1H29.6965ZM30.8159 50.1H31.7539V55H30.8159V50.1ZM40.6539 55H39.8559C39.8419 55.5973 39.6903 56.036 39.4009 56.316C39.1116 56.596 38.7149 56.736 38.2109 56.736H36.2579C35.9359 56.736 35.6163 56.6753 35.2989 56.554C34.9816 56.4327 34.7179 56.246 34.5079 55.994C34.3026 55.742 34.1999 55.434 34.1999 55.07C34.1999 54.9067 34.2186 54.6897 34.2559 54.419C34.2979 54.1483 34.3423 53.8987 34.3889 53.67L35.2639 53.81C35.2313 54.006 35.2009 54.2183 35.1729 54.447C35.1496 54.671 35.1379 54.832 35.1379 54.93C35.1379 55.1073 35.1823 55.2683 35.2709 55.413C35.3643 55.5577 35.4926 55.672 35.6559 55.756C35.8193 55.84 36.0083 55.882 36.2229 55.882H38.1549C38.4116 55.882 38.5983 55.8167 38.7149 55.686C38.8316 55.5553 38.8923 55.3267 38.8969 55H38.8759C38.6613 55 38.4699 54.979 38.3019 54.937C38.1339 54.8903 37.9613 54.804 37.7839 54.678L38.1899 53.95C38.3113 54.0433 38.4186 54.0993 38.5119 54.118C38.6053 54.1367 38.7499 54.146 38.9459 54.146H40.6539V55ZM36.2019 57.24H36.9229V58.115H36.2019V57.24ZM37.2659 57.24H37.9869V58.115H37.2659V57.24ZM45.9066 51.493C45.9579 51.7917 46.0023 52.095 46.0396 52.403C46.0816 52.711 46.1026 52.928 46.1026 53.054V55H44.6606C44.5066 55 44.3573 54.9743 44.2126 54.923C44.0726 54.8717 43.9583 54.811 43.8696 54.741C43.6829 54.9137 43.4496 55 43.1696 55H40.5166V54.146H41.5876V51.85H42.5256V54.146H42.8476C43.0249 54.146 43.1603 54.076 43.2536 53.936C43.3516 53.7913 43.4006 53.607 43.4006 53.383V51.85H44.3386V53.383C44.3386 53.621 44.3153 53.8333 44.2686 54.02C44.3106 54.0527 44.3643 54.083 44.4296 54.111C44.4996 54.1343 44.5696 54.146 44.6396 54.146H45.1646V53.187C45.1646 52.8883 45.1599 52.6363 45.1506 52.431C45.1413 52.221 45.1203 51.92 45.0876 51.528L45.9066 51.493ZM47.0854 50.1H48.0234V55H47.0854V50.1ZM51.7664 55H50.6114C50.6067 55.5507 50.5064 55.9777 50.3104 56.281C50.119 56.5843 49.8297 56.736 49.4424 56.736C49.3817 56.736 49.2114 56.7267 48.9314 56.708V55.868L49.1694 55.882C49.3374 55.882 49.4634 55.8143 49.5474 55.679C49.6314 55.5483 49.6734 55.3617 49.6734 55.119V51.5H50.6114V54.146H51.7664V55ZM54.4006 51.437C54.8812 51.437 55.2499 51.507 55.5066 51.647C55.7679 51.787 55.9429 51.9853 56.0316 52.242C56.1249 52.4987 56.1716 52.8347 56.1716 53.25V55H51.7686V54.146H52.8606C52.7952 53.81 52.7626 53.5137 52.7626 53.257C52.7626 53.0003 52.7882 52.725 52.8396 52.431C52.8909 52.137 52.9492 51.8827 53.0146 51.668C53.1406 51.6073 53.3272 51.5537 53.5746 51.507C53.8219 51.4603 54.0972 51.437 54.4006 51.437ZM53.6726 53.257C53.6726 53.4157 53.6819 53.579 53.7006 53.747C53.7239 53.9103 53.7472 54.0433 53.7706 54.146H55.2336V53.229C55.2336 52.9023 55.1682 52.662 55.0376 52.508C54.9116 52.354 54.6666 52.277 54.3026 52.277C54.1252 52.277 53.9479 52.2957 53.7706 52.333C53.7052 52.683 53.6726 52.991 53.6726 53.257Z" fill="#313198"/>
<defs>
<clipPath id="clip0_287_12">
<rect width="39.9376" height="40" fill="white" transform="translate(11.5312 2)"/>
</clipPath>
</defs>
</svg>
