<svg width="70" height="70" viewBox="0 0 70 70" fill="none" xmlns="http://www.w3.org/2000/svg">
<g clip-path="url(#clip0_323_9)">
<path d="M35 64.1667C51.1083 64.1667 64.1667 51.1083 64.1667 35C64.1667 18.8917 51.1083 5.83337 35 5.83337C18.8917 5.83337 5.83333 18.8917 5.83333 35C5.83333 51.1083 18.8917 64.1667 35 64.1667Z" fill="#F7931E"/>
<path fill-rule="evenodd" clip-rule="evenodd" d="M22.9371 21.3467C22.9047 21.38 22.8784 24.2578 22.8786 27.7418C22.8788 33.8123 22.8858 34.0874 23.0444 34.3454C23.5126 35.1068 27.7693 39.0569 28.1215 39.0569C28.1587 39.0569 28.1892 36.1008 28.1892 32.4877C28.1892 28.8746 28.222 25.9568 28.2621 26.0037C28.3022 26.0506 28.4635 26.7351 28.6206 27.5249C28.7775 28.3146 28.9775 29.2838 29.065 29.6787C29.1524 30.0736 29.2837 30.6794 29.3565 31.0249C29.5878 32.1213 30.1058 34.5912 30.2412 35.2428C30.313 35.5883 30.4087 36.0326 30.4539 36.23C30.6406 37.0458 30.9823 38.6461 31.2395 39.9095C31.6191 41.7737 31.6282 41.7987 32.0212 42.0374C32.2073 42.1504 32.8218 42.5302 33.3869 42.8814C33.952 43.2326 34.5514 43.603 34.719 43.7045C35.1177 43.9458 38.4002 45.6274 38.8717 45.8318C39.2802 46.0088 39.5076 45.9669 39.5076 45.7144C39.5076 45.6216 39.6087 45.0852 39.7321 44.5224C39.8557 43.9597 40.032 43.1358 40.1239 42.6915C40.2159 42.2473 40.3456 41.6415 40.412 41.3454C40.4784 41.0492 40.6001 40.4838 40.6822 40.089C40.7644 39.6941 40.9101 39.0278 41.0059 38.6082C41.1016 38.1887 41.2524 37.5021 41.3409 37.0826C41.5035 36.3118 42.0964 33.5808 42.3347 32.5056C42.4058 32.1848 42.5853 31.3771 42.7338 30.7108C42.8821 30.0444 43.0409 29.2973 43.0867 29.0505C43.1324 28.8037 43.2037 28.4201 43.2452 28.198C43.2866 27.9758 43.3601 27.6528 43.4085 27.48C43.457 27.3072 43.5216 27.0145 43.5521 26.8294C43.5825 26.6443 43.6419 26.4928 43.6841 26.4928C43.7275 26.4928 43.7638 31.0272 43.7681 37.003C43.7723 42.7836 43.7944 47.5443 43.8172 47.5824C43.84 47.6204 43.9669 47.6737 44.0992 47.7007C44.2314 47.7277 44.7315 47.8409 45.2103 47.9523C45.9204 48.1174 46.3539 48.1558 47.5611 48.1603L49.0412 48.1659V34.7492V21.3326H44.9628H40.8844L40.7713 21.6718C40.7091 21.8584 40.6101 22.2824 40.5513 22.6141C40.4925 22.9458 40.3892 23.4393 40.3217 23.7108C40.1702 24.3199 39.2703 28.3874 39.1106 29.1851C38.9615 29.9293 38.6307 31.4355 38.1545 33.5377C38.0316 34.0806 37.878 34.7672 37.8133 35.0633C37.7485 35.3595 37.5711 36.1672 37.4188 36.8582C37.2666 37.5492 37.0464 38.5588 36.9297 39.1018C36.8129 39.6447 36.6234 40.4928 36.5086 40.9864C36.3938 41.48 36.254 42.1204 36.1978 42.4095C36.1409 42.7029 36.0628 42.901 36.021 42.8579C35.957 42.792 35.683 41.6448 35.4238 40.3582C35.384 40.1608 35.2059 39.3531 35.0278 38.5633C34.8499 37.7736 34.6087 36.6832 34.492 36.1403C34.3754 35.5973 34.1865 34.7492 34.0723 34.2556C33.9582 33.7621 33.7839 32.9947 33.6849 32.5505C33.586 32.1063 33.2835 30.7534 33.0126 29.5441C32.7418 28.3348 32.4678 27.1031 32.4037 26.8069C32.3397 26.5108 32.1661 25.7435 32.0178 25.1018C31.8696 24.4601 31.7113 23.7332 31.666 23.4864C31.6206 23.2396 31.4934 22.654 31.3834 22.1851L31.1831 21.3326L27.0895 21.3092C24.8381 21.2964 22.9695 21.3133 22.9371 21.3467ZM22.8782 44.2145V49.0131L25.3378 49.0382C26.6905 49.052 27.8855 49.0504 27.9933 49.0346L28.1892 49.006V46.3118V43.6177L27.9497 43.4011C27.8181 43.282 27.469 43.0131 27.1741 42.8035C26.6462 42.4282 24.8786 41.0494 24.7936 40.9466C24.6202 40.7366 23.0502 39.4159 22.974 39.4159C22.9056 39.4159 22.8782 40.7838 22.8782 44.2145ZM32.6969 46.6455C32.6715 46.6717 32.7004 46.8831 32.761 47.1154C32.8217 47.3476 32.9408 47.8708 33.0258 48.2781C33.1108 48.6853 33.2229 49.0214 33.275 49.0251C33.3687 49.0317 36.6916 49.0226 37.0262 49.0148C37.122 49.0125 36.456 48.6156 35.5461 48.1326C34.6363 47.6496 33.6334 47.1067 33.3175 46.9262C33.0016 46.7456 32.7224 46.6194 32.6969 46.6455Z" fill="#2E3192"/>
<path d="M45.344 51.8318C32.1238 49.1136 14.0852 33.8838 13.1021 24.6618C12.701 20.8988 13.3938 19.1426 16.9223 18.4382C21.5176 17.5208 27.7091 18.9984 32.9188 21.0927C35.3266 22.0606 35.1883 22.1606 29.5631 20.6666C13.5402 16.4111 13.5496 25.4181 25.1293 36.4051C29.6728 40.745 33.4745 43.2878 38.7667 45.6182C51.9915 51.3912 58.5612 46.3491 51.3902 35.857L49.2208 32.7113L51.0789 34.6574C52.0646 35.7315 53.8432 38.222 54.976 40.2454C57.366 44.6004 57.6598 47.3564 55.9589 49.8962C55.0461 51.2264 53.9882 51.4705 51.402 51.8828C48.8157 52.2952 45.8441 51.9346 45.344 51.8318Z" fill="white"/>
</g>
<defs>
<clipPath id="clip0_323_9">
<rect width="58.3333" height="58.3333" fill="white" transform="translate(5.83333 5.83337)"/>
</clipPath>
</defs>
</svg>
