<svg width="50" height="50" viewBox="0 0 50 50" fill="none" xmlns="http://www.w3.org/2000/svg">
<path fill-rule="evenodd" clip-rule="evenodd" d="M2.21876 8.86248C2.30947 8.70197 2.44116 8.5684 2.60038 8.47544C2.75959 8.38247 2.94063 8.33342 3.12501 8.33331H40.625C42.5589 8.33331 44.4135 9.10154 45.781 10.469C47.1484 11.8364 47.9167 13.6911 47.9167 15.625V34.375C47.9167 36.3088 47.1484 38.1635 45.781 39.531C44.4135 40.8984 42.5589 41.6666 40.625 41.6666H15.625C13.6911 41.6666 11.8365 40.8984 10.469 39.531C9.10157 38.1635 8.33334 36.3088 8.33334 34.375V20.0791L2.23126 9.91248C2.13637 9.75425 2.08522 9.57366 2.08302 9.38917C2.08082 9.20468 2.12767 9.02292 2.21876 8.86248ZM15.625 15.1041C15.2106 15.1041 14.8132 15.2688 14.5202 15.5618C14.2271 15.8548 14.0625 16.2522 14.0625 16.6666C14.0625 17.081 14.2271 17.4785 14.5202 17.7715C14.8132 18.0645 15.2106 18.2291 15.625 18.2291H40.625C41.0394 18.2291 41.4368 18.0645 41.7299 17.7715C42.0229 17.4785 42.1875 17.081 42.1875 16.6666C42.1875 16.2522 42.0229 15.8548 41.7299 15.5618C41.4368 15.2688 41.0394 15.1041 40.625 15.1041H15.625ZM15.625 22.3958C15.2106 22.3958 14.8132 22.5604 14.5202 22.8535C14.2271 23.1465 14.0625 23.5439 14.0625 23.9583C14.0625 24.3727 14.2271 24.7701 14.5202 25.0632C14.8132 25.3562 15.2106 25.5208 15.625 25.5208H40.625C41.0394 25.5208 41.4368 25.3562 41.7299 25.0632C42.0229 24.7701 42.1875 24.3727 42.1875 23.9583C42.1875 23.5439 42.0229 23.1465 41.7299 22.8535C41.4368 22.5604 41.0394 22.3958 40.625 22.3958H15.625ZM14.0625 31.25C14.0625 30.8356 14.2271 30.4382 14.5202 30.1451C14.8132 29.8521 15.2106 29.6875 15.625 29.6875H33.3333C33.7477 29.6875 34.1452 29.8521 34.4382 30.1451C34.7312 30.4382 34.8958 30.8356 34.8958 31.25C34.8958 31.6644 34.7312 32.0618 34.4382 32.3548C34.1452 32.6479 33.7477 32.8125 33.3333 32.8125H15.625C15.2106 32.8125 14.8132 32.6479 14.5202 32.3548C14.2271 32.0618 14.0625 31.6644 14.0625 31.25Z" fill="#F7931E"/>
</svg>
