<svg width="55" height="55" viewBox="0 0 55 55" fill="none" xmlns="http://www.w3.org/2000/svg">
<path d="M22.9167 27.5H11.4583C10.8505 27.5 10.2676 27.2585 9.83787 26.8288C9.4081 26.399 9.16666 25.8161 9.16666 25.2083V17.1875C9.16666 16.5797 9.4081 15.9968 9.83787 15.567C10.2676 15.1373 10.8505 14.8958 11.4583 14.8958H20.625C21.2328 14.8958 21.8157 15.1373 22.2454 15.567C22.6752 15.9968 22.9167 16.5797 22.9167 17.1875V27.5ZM22.9167 27.5C22.9167 33.2291 20.625 36.6666 13.75 40.1041M45.8333 27.5H34.375C33.7672 27.5 33.1843 27.2585 32.7545 26.8288C32.3248 26.399 32.0833 25.8161 32.0833 25.2083V17.1875C32.0833 16.5797 32.3248 15.9968 32.7545 15.567C33.1843 15.1373 33.7672 14.8958 34.375 14.8958H43.5417C44.1494 14.8958 44.7323 15.1373 45.1621 15.567C45.5919 15.9968 45.8333 16.5797 45.8333 17.1875V27.5ZM45.8333 27.5C45.8333 33.2291 43.5417 36.6666 36.6667 40.1041" stroke="#F7931E" stroke-width="2.11538" stroke-linecap="round"/>
</svg>
