<svg width="47" height="47" viewBox="0 0 47 47" fill="none" xmlns="http://www.w3.org/2000/svg">
<path fill-rule="evenodd" clip-rule="evenodd" d="M18.6075 24.9815C18.4299 26.5274 17.9563 27.7618 17.1317 28.8563C16.0259 30.3164 14.1717 31.6806 11.106 33.1306C10.9093 33.2123 10.7323 33.3309 10.5856 33.4792C10.4389 33.6275 10.3256 33.8024 10.2527 33.9933C10.1797 34.1842 10.1486 34.3871 10.1612 34.5897C10.1737 34.7923 10.2298 34.9904 10.3259 35.1719C10.4219 35.3535 10.5561 35.5146 10.7201 35.6457C10.8841 35.7768 11.0746 35.875 11.2801 35.9344C11.4855 35.9938 11.7016 36.0132 11.9152 35.9913C12.1287 35.9694 12.3354 35.9067 12.5226 35.8071C15.7997 34.2611 18.1741 32.6293 19.7111 30.594C21.2778 28.5248 21.8571 26.1938 21.8571 23.4834V14.4954C21.8571 13.5683 21.4673 12.6793 20.7734 12.0238C20.0796 11.3683 19.1384 11 18.1571 11H9.7C8.7187 11 7.77759 11.3683 7.08371 12.0238C6.38982 12.6793 6 13.5683 6 14.4954V21.4861C6 23.4155 7.6576 24.9815 9.7 24.9815H18.6075ZM39.7503 24.9815C39.5727 26.5274 39.0991 27.7618 38.2746 28.8563C37.1688 30.3164 35.3146 31.6806 32.2489 33.1306C32.0522 33.2123 31.8751 33.3309 31.7284 33.4792C31.5818 33.6275 31.4685 33.8024 31.3955 33.9933C31.3226 34.1842 31.2914 34.3871 31.304 34.5897C31.3166 34.7923 31.3726 34.9904 31.4687 35.1719C31.5648 35.3535 31.6989 35.5146 31.8629 35.6457C32.027 35.7768 32.2175 35.875 32.4229 35.9344C32.6284 35.9938 32.8444 36.0132 33.058 35.9913C33.2716 35.9694 33.4783 35.9067 33.6654 35.8071C36.9426 34.2611 39.3169 32.6293 40.854 30.594C42.4207 28.5248 43 26.1938 43 23.4834V14.4954C43 13.5683 42.6102 12.6793 41.9163 12.0238C41.2224 11.3683 40.2813 11 39.3 11H30.8429C29.8616 11 28.9204 11.3683 28.2266 12.0238C27.5327 12.6793 27.1429 13.5683 27.1429 14.4954V21.4861C27.1429 23.4155 28.8005 24.9815 30.8429 24.9815H39.7503Z" fill="#F7931E"/>
</svg>
