<svg width="50" height="50" viewBox="0 0 50 50" fill="none" xmlns="http://www.w3.org/2000/svg">
<path d="M48.4375 39.6875C48.4375 38.9062 47.8125 38.2031 46.9531 38.2031H3.04688C2.26563 38.2031 1.5625 38.8281 1.5625 39.6875V41.1719C1.5625 41.9531 2.1875 42.6562 3.04688 42.6562H46.9531C47.7344 42.6562 48.4375 42.0312 48.4375 41.1719V39.6875Z" fill="#B2C1C0"/>
<path d="M9.60938 48.4375C12.4571 48.4375 14.7656 46.1639 14.7656 43.3594C14.7656 40.5548 12.4571 38.2812 9.60938 38.2812C6.76166 38.2812 4.45312 40.5548 4.45312 43.3594C4.45312 46.1639 6.76166 48.4375 9.60938 48.4375Z" fill="#132C47"/>
<path d="M9.60938 46.25C11.249 46.25 12.5781 44.9558 12.5781 43.3594C12.5781 41.7629 11.249 40.4688 9.60938 40.4688C7.96978 40.4688 6.64062 41.7629 6.64062 43.3594C6.64062 44.9558 7.96978 46.25 9.60938 46.25Z" fill="#B2C1C0"/>
<path d="M39.6875 48.4375C42.5352 48.4375 44.8438 46.1639 44.8438 43.3594C44.8438 40.5548 42.5352 38.2812 39.6875 38.2812C36.8398 38.2812 34.5312 40.5548 34.5312 43.3594C34.5312 46.1639 36.8398 48.4375 39.6875 48.4375Z" fill="#132C47"/>
<path d="M39.6875 46.25C41.3271 46.25 42.6562 44.9558 42.6562 43.3594C42.6562 41.7629 41.3271 40.4688 39.6875 40.4688C38.0479 40.4688 36.7188 41.7629 36.7188 43.3594C36.7188 44.9558 38.0479 46.25 39.6875 46.25Z" fill="#B2C1C0"/>
<path d="M42.5781 14.8438H22.0313C19.6094 14.8438 17.6562 16.7969 17.6562 19.2188V38.2031H46.9531V19.2188C46.9531 16.7969 45 14.8438 42.5781 14.8438Z" fill="#62727A"/>
<path d="M11.7969 20.7031C8.28125 20.7031 7.42187 20.7031 7.42187 26.5625C7.42187 30.9375 3.04688 30.9375 3.04688 35.3125V38.2031H17.7344V20.7031H11.7969Z" fill="#F7931E"/>
<path d="M4.53125 33.8281H6.01562V36.7188H4.53125V33.8281Z" fill="#FFCE31"/>
<path d="M9.99997 30.9375C9.14059 30.9375 8.67184 31.5625 8.98434 32.3438L10.2343 35.4688C10.5468 36.25 11.4843 36.7969 12.3437 36.7969H14.6875C15.5468 36.7969 16.25 36.1719 16.25 35.3125V32.4219C16.25 31.6406 15.5468 30.9375 14.6875 30.9375H9.99997Z" fill="#D97706"/>
<path d="M16.25 22.1094H10.3906C10.3906 22.1094 8.90625 22.2656 8.90625 24.2969V27.8125C8.90625 27.8125 8.90625 29.4531 10.3906 29.4531H16.25V22.1094Z" fill="#132C47"/>
<path d="M9.60938 41.0937C9.9977 41.0937 10.3125 40.779 10.3125 40.3906C10.3125 40.0023 9.9977 39.6875 9.60938 39.6875C9.22105 39.6875 8.90625 40.0023 8.90625 40.3906C8.90625 40.779 9.22105 41.0937 9.60938 41.0937Z" fill="#132C47"/>
<path d="M7.10938 42.5781C7.4977 42.5781 7.8125 42.2633 7.8125 41.875C7.8125 41.4867 7.4977 41.1719 7.10938 41.1719C6.72105 41.1719 6.40625 41.4867 6.40625 41.875C6.40625 42.2633 6.72105 42.5781 7.10938 42.5781Z" fill="#132C47"/>
<path d="M6.71875 44.1407C7.03125 43.9063 7.5 44.0626 7.73437 44.3751C7.96875 44.6876 7.8125 45.1563 7.5 45.3907C7.1875 45.6251 6.71875 45.4688 6.48437 45.1563C6.25 44.7657 6.32813 44.3751 6.71875 44.1407Z" fill="#132C47"/>
<path d="M9.60938 46.9531C9.9977 46.9531 10.3125 46.6383 10.3125 46.25C10.3125 45.8617 9.9977 45.5469 9.60938 45.5469C9.22105 45.5469 8.90625 45.8617 8.90625 46.25C8.90625 46.6383 9.22105 46.9531 9.60938 46.9531Z" fill="#132C47"/>
<path d="M12.1875 45.4687C12.5758 45.4687 12.8906 45.1539 12.8906 44.7656C12.8906 44.3773 12.5758 44.0625 12.1875 44.0625C11.7992 44.0625 11.4844 44.3773 11.4844 44.7656C11.4844 45.1539 11.7992 45.4687 12.1875 45.4687Z" fill="#132C47"/>
<path d="M12.1875 42.5781C12.5758 42.5781 12.8906 42.2633 12.8906 41.875C12.8906 41.4867 12.5758 41.1719 12.1875 41.1719C11.7992 41.1719 11.4844 41.4867 11.4844 41.875C11.4844 42.2633 11.7992 42.5781 12.1875 42.5781Z" fill="#132C47"/>
<path d="M9.60938 44.8438C10.4292 44.8438 11.0938 44.1792 11.0938 43.3594C11.0938 42.5396 10.4292 41.875 9.60938 41.875C8.78958 41.875 8.125 42.5396 8.125 43.3594C8.125 44.1792 8.78958 44.8438 9.60938 44.8438Z" fill="#62727A"/>
<path d="M39.6875 41.0937C40.0758 41.0937 40.3906 40.779 40.3906 40.3906C40.3906 40.0023 40.0758 39.6875 39.6875 39.6875C39.2992 39.6875 38.9844 40.0023 38.9844 40.3906C38.9844 40.779 39.2992 41.0937 39.6875 41.0937Z" fill="#132C47"/>
<path d="M37.1094 42.5781C37.4977 42.5781 37.8125 42.2633 37.8125 41.875C37.8125 41.4867 37.4977 41.1719 37.1094 41.1719C36.7211 41.1719 36.4062 41.4867 36.4062 41.875C36.4062 42.2633 36.7211 42.5781 37.1094 42.5781Z" fill="#132C47"/>
<path d="M36.7189 44.1407C37.0314 43.9063 37.5002 44.0626 37.7346 44.3751C37.9689 44.6876 37.8127 45.1563 37.5002 45.3907C37.1877 45.6251 36.7189 45.4688 36.4846 45.1563C36.2502 44.7657 36.4064 44.3751 36.7189 44.1407Z" fill="#132C47"/>
<path d="M39.6875 46.9531C40.0758 46.9531 40.3906 46.6383 40.3906 46.25C40.3906 45.8617 40.0758 45.5469 39.6875 45.5469C39.2992 45.5469 38.9844 45.8617 38.9844 46.25C38.9844 46.6383 39.2992 46.9531 39.6875 46.9531Z" fill="#132C47"/>
<path d="M42.1875 45.4687C42.5758 45.4687 42.8906 45.1539 42.8906 44.7656C42.8906 44.3773 42.5758 44.0625 42.1875 44.0625C41.7992 44.0625 41.4844 44.3773 41.4844 44.7656C41.4844 45.1539 41.7992 45.4687 42.1875 45.4687Z" fill="#132C47"/>
<path d="M42.1875 42.5781C42.5758 42.5781 42.8906 42.2633 42.8906 41.875C42.8906 41.4867 42.5758 41.1719 42.1875 41.1719C41.7992 41.1719 41.4844 41.4867 41.4844 41.875C41.4844 42.2633 41.7992 42.5781 42.1875 42.5781Z" fill="#132C47"/>
<path d="M39.6875 44.8438C40.5073 44.8438 41.1719 44.1792 41.1719 43.3594C41.1719 42.5396 40.5073 41.875 39.6875 41.875C38.8677 41.875 38.2031 42.5396 38.2031 43.3594C38.2031 44.1792 38.8677 44.8438 39.6875 44.8438Z" fill="#62727A"/>
<path d="M22.1875 25.5469C21.7969 25.2344 21.25 25.0781 20.4688 25.0781C20 25.0781 19.5313 25.0781 19.2188 25.1563V29.375C19.4531 29.375 19.8437 29.4531 20.3125 29.4531C21.1719 29.4531 21.7969 29.2188 22.2656 28.8281C22.6562 28.4375 22.9687 27.8906 22.9687 27.1094C22.8125 26.4063 22.5781 25.9375 22.1875 25.5469ZM20.3906 28.8281H19.9219V25.7813C20 25.7813 20.2344 25.7031 20.4688 25.7031C21.4844 25.7031 22.0313 26.25 22.0313 27.1875C22.0313 28.2813 21.4062 28.8281 20.3906 28.8281Z" fill="white"/>
<path d="M25.9375 27.5H24.2969V28.75H26.0938V29.375H23.5156V25.0781H26.0156V25.7813H24.2969V26.875H25.9375V27.5Z" fill="white"/>
<path d="M27.5781 28.75V25.0781H26.7969V29.375H29.375V28.75H27.5781Z" fill="white"/>
<path d="M29.9219 25.0781H30.7031V29.375H29.9219V25.0781Z" fill="white"/>
<path d="M34.1406 25.0781L33.5156 27.0312C33.3594 27.5781 33.2031 28.0469 33.0469 28.5938C32.9687 28.0469 32.8125 27.5781 32.6562 27.0312L32.0312 25.0781H31.25L32.6562 29.375H33.5938L35.0781 25.0781H34.1406Z" fill="white"/>
<path d="M36.25 28.75V27.5H37.8906V26.875H36.25V25.7813H37.9687V25.0781H35.4688V29.375H38.0469V28.75H36.25Z" fill="white"/>
<path d="M41.4844 28.2031C41.4062 27.8125 41.1719 27.5 40.8594 27.3438C41.25 27.1875 41.6406 26.7969 41.6406 26.25C41.6406 25.8594 41.4844 25.625 41.25 25.3906C40.9375 25.1563 40.5469 25.0781 39.9219 25.0781C39.4531 25.0781 39.0625 25.0781 38.75 25.1563V29.375H39.5312V27.5781H39.9219C40.3906 27.5781 40.5469 27.7344 40.7031 28.3594C40.8594 28.9063 40.9375 29.2187 41.0156 29.375H41.7969C41.7188 29.2187 41.6406 28.75 41.4844 28.2031ZM40 27.0312H39.5312V25.7031H40C40.5469 25.7031 40.8594 25.9375 40.8594 26.4063C40.8594 26.7969 40.5469 27.0312 40 27.0312Z" fill="white"/>
<path d="M44.6094 25.0781L44.0625 26.1719C43.9063 26.4844 43.8281 26.7187 43.6719 27.0312C43.5938 26.7187 43.4375 26.4844 43.2813 26.1719L42.7344 25.0781H41.875L43.2031 27.5781V29.375H43.9844V27.5781L45.3906 25.0781H44.6094Z" fill="white"/>
<path d="M21.3281 23.5938V19.2188C21.3281 18.8281 21.6406 18.5156 22.0313 18.5156H42.5C42.8906 18.5156 43.2031 18.8281 43.2031 19.2188V23.5938H44.6875V19.2188C44.6875 18.0469 43.6719 17.0312 42.5 17.0312H22.0313C20.7813 17.0312 19.8438 18.0469 19.8438 19.2188V23.5938H21.3281Z" fill="#132C47"/>
<path d="M43.2813 30.9375V33.8281C43.2813 34.2188 42.9688 34.5313 42.5781 34.5313H22.0313C21.6406 34.5313 21.3281 34.2188 21.3281 33.8281V30.9375H19.8438V33.8281C19.8438 35 20.8594 36.0156 22.0313 36.0156H42.5C43.75 36.0156 44.6875 35 44.6875 33.8281V30.9375H43.2813Z" fill="#132C47"/>
<path d="M22.8125 20.625C23.2008 20.625 23.5156 20.3102 23.5156 19.9219C23.5156 19.5335 23.2008 19.2188 22.8125 19.2188C22.4242 19.2188 22.1094 19.5335 22.1094 19.9219C22.1094 20.3102 22.4242 20.625 22.8125 20.625Z" fill="#B2C1C0"/>
<path d="M41.875 20.625C42.2633 20.625 42.5781 20.3102 42.5781 19.9219C42.5781 19.5335 42.2633 19.2188 41.875 19.2188C41.4867 19.2188 41.1719 19.5335 41.1719 19.9219C41.1719 20.3102 41.4867 20.625 41.875 20.625Z" fill="#B2C1C0"/>
<path d="M22.8125 33.8281C23.2008 33.8281 23.5156 33.5133 23.5156 33.125C23.5156 32.7367 23.2008 32.4219 22.8125 32.4219C22.4242 32.4219 22.1094 32.7367 22.1094 33.125C22.1094 33.5133 22.4242 33.8281 22.8125 33.8281Z" fill="#B2C1C0"/>
<path d="M41.875 33.8281C42.2633 33.8281 42.5781 33.5133 42.5781 33.125C42.5781 32.7367 42.2633 32.4219 41.875 32.4219C41.4867 32.4219 41.1719 32.7367 41.1719 33.125C41.1719 33.5133 41.4867 33.8281 41.875 33.8281Z" fill="#B2C1C0"/>
<path d="M29.375 43.3594C29.375 44.1406 28.75 44.8438 27.8906 44.8438H22.0313C21.25 44.8438 20.5469 44.2187 20.5469 43.3594V41.875C20.5469 41.0937 21.1719 40.3906 22.0313 40.3906H27.8906C28.6719 40.3906 29.375 41.0156 29.375 41.875V43.3594Z" fill="#62727A"/>
<path d="M22.2656 41.1719C21.7969 41.1719 21.3281 41.4844 21.3281 41.875C21.3281 42.2656 21.7188 42.5781 22.2656 42.5781H27.7344C28.2031 42.5781 28.6719 42.2656 28.6719 41.875C28.6719 41.4844 28.2813 41.1719 27.7344 41.1719H22.2656Z" fill="#B2C1C0"/>
</svg>
