<svg width="45" height="45" viewBox="0 0 45 45" fill="none" xmlns="http://www.w3.org/2000/svg">
<g clip-path="url(#clip0_227_263)">
<path d="M1.52502 14.9688L22.547 0.703857L43.5688 14.9688V44.2493H1.52502V14.9688Z" fill="#F7931E"/>
<path d="M24.0485 1.72277L22.547 0.703857L1.52502 14.9688V44.2493H4.52816V14.9688L24.0485 1.72277Z" fill="#F7931E"/>
<path d="M36.061 18.7227H9.03284V44.2493H36.061V18.7227Z" fill="#74757B"/>
<path d="M36.061 18.7227H9.03284V44.2493H36.061V18.7227Z" fill="#62727A"/>
<path d="M12.036 18.7227H9.03284V44.2493H12.036V18.7227Z" fill="#606268"/>
<path d="M37.5625 15.7195H7.53125V18.7226H37.5625V15.7195Z" fill="#D7D8D9"/>
<path d="M18.0422 26.2305H9.03284V35.2399H18.0422V26.2305Z" fill="#FDDD85"/>
<path d="M11.2852 26.2305H9.03284V35.2399H11.2852V26.2305Z" fill="#FDD042"/>
<path d="M15.0391 26.2305H12.036V30.7351H15.0391V26.2305Z" fill="#E1A527"/>
<path d="M18.0422 35.2397H9.03284V44.2492H18.0422V35.2397Z" fill="#FDDD85"/>
<path d="M11.2852 35.2397H9.03284V44.2492H11.2852V35.2397Z" fill="#FDD042"/>
<path d="M15.0391 35.2397H12.036V39.7444H15.0391V35.2397Z" fill="#E1A527"/>
<path d="M27.0516 35.2397H18.0422V44.2492H27.0516V35.2397Z" fill="#FDDD85"/>
<path d="M20.2946 35.2397H18.0422V44.2492H20.2946V35.2397Z" fill="#FDD042"/>
<path d="M24.0484 35.2397H21.0453V39.7444H24.0484V35.2397Z" fill="#E1A527"/>
<path d="M43.9405 14.3863L22.9303 0.121454C22.6919 -0.0405286 22.3845 -0.0404407 22.1457 0.121454L1.10332 14.3863C0.910312 14.5173 0.77417 14.7354 0.77417 14.9687V44.2492C0.77417 44.638 1.13619 45 1.52493 45H43.5687C43.9576 45 44.2256 44.638 44.2256 44.2492V14.9687C44.2257 14.7354 44.1336 14.5173 43.9405 14.3863ZM8.18818 18.0657V16.4703H36.8118V18.0657H8.18818ZM12.6928 26.9813H14.2882V30.0783H12.6928V26.9813ZM12.0359 31.4859H15.0391C15.4278 31.4859 15.696 31.1239 15.696 30.7352V26.9813H17.2914V34.5829H15.039H12.0359H9.68971V26.9813H11.2851V30.7352C11.2851 31.1238 11.6472 31.4859 12.0359 31.4859ZM12.6928 35.9906H14.2882V39.0876H12.6928V35.9906ZM9.68971 35.9906H11.2851V39.7445C11.2851 40.1332 11.6471 40.4952 12.0359 40.4952H15.039C15.4277 40.4952 15.6959 40.1332 15.6959 39.7445V35.9906H17.2913V43.5922H9.68962L9.68971 35.9906ZM18.6991 43.5922V35.9906H20.2945V39.7445C20.2945 40.1332 20.6565 40.4952 21.0453 40.4952H24.0484C24.4372 40.4952 24.7053 40.1332 24.7053 39.7445V35.9906H26.3007V43.5922H18.6991ZM21.7022 35.9906H23.2976V39.0876H21.7022V35.9906ZM42.818 43.5922H36.7178V28.4828C36.7178 28.0941 36.4027 27.779 36.014 27.779C35.6252 27.779 35.3102 28.0941 35.3102 28.4828V43.5922H27.7085V35.2398C27.7085 34.8511 27.4404 34.5829 27.0516 34.5829H18.6992V26.2305C18.6992 25.8418 18.431 25.5736 18.0423 25.5736H9.68988V19.4735H35.3104V25.4797C35.3104 25.8685 35.6254 26.1836 36.0142 26.1836C36.403 26.1836 36.718 25.8684 36.718 25.4797V19.4735H37.5626C37.9515 19.4735 38.2195 19.1115 38.2195 18.7227V15.7196C38.2195 15.3308 37.9514 15.0627 37.5626 15.0627H7.5312C7.14246 15.0627 6.78044 15.3309 6.78044 15.7196V18.7227C6.78044 19.1115 7.14246 19.4735 7.5312 19.4735H8.28196V43.5923H2.18191V15.3417L22.4999 1.55451L42.818 15.3417V43.5922Z" fill="#132C47"/>
<path d="M18.84 6.75705C18.84 7.14579 19.1551 7.46088 19.5438 7.46088H25.5501C25.9389 7.46088 26.2539 7.1457 26.2539 6.75705C26.2539 6.3684 25.9388 6.05322 25.5501 6.05322H19.5438C19.1551 6.05322 18.84 6.36831 18.84 6.75705Z" fill="#132C47"/>
<path d="M25.5501 9.0564H19.5438C19.1551 9.0564 18.84 9.37157 18.84 9.76022C18.84 10.149 19.1551 10.4641 19.5438 10.4641H25.5501C25.9389 10.4641 26.2539 10.1489 26.2539 9.76022C26.2539 9.37148 25.9389 9.0564 25.5501 9.0564Z" fill="#132C47"/>
<path d="M25.5501 12.0596H19.5438C19.1551 12.0596 18.84 12.3747 18.84 12.7634C18.84 13.1521 19.1551 13.4672 19.5438 13.4672H25.5501C25.9389 13.4672 26.2539 13.1521 26.2539 12.7634C26.2539 12.3747 25.9389 12.0596 25.5501 12.0596Z" fill="#132C47"/>
<path d="M12.036 33.7382H15.0391C15.4279 33.7382 15.7429 33.423 15.7429 33.0344C15.7429 32.6457 15.4278 32.3306 15.0391 32.3306H12.036C11.6472 32.3306 11.3322 32.6457 11.3322 33.0344C11.3321 33.423 11.6472 33.7382 12.036 33.7382Z" fill="#132C47"/>
<path d="M15.0391 41.3398H12.036C11.6472 41.3398 11.3322 41.655 11.3322 42.0437C11.3322 42.4324 11.6473 42.7475 12.036 42.7475H15.0391C15.4279 42.7475 15.7429 42.4323 15.7429 42.0437C15.7429 41.6549 15.4278 41.3398 15.0391 41.3398Z" fill="#132C47"/>
<path d="M24.0485 41.3398H21.0454C20.6566 41.3398 20.3416 41.655 20.3416 42.0437C20.3416 42.4324 20.6567 42.7475 21.0454 42.7475H24.0485C24.4373 42.7475 24.7523 42.4323 24.7523 42.0437C24.7524 41.6549 24.4373 41.3398 24.0485 41.3398Z" fill="#132C47"/>
</g>
<defs>
<clipPath id="clip0_227_263">
<rect width="45" height="45" fill="white"/>
</clipPath>
</defs>
</svg>
