<svg width="44" height="44" viewBox="0 0 44 44" fill="none" xmlns="http://www.w3.org/2000/svg">
<g clip-path="url(#clip0_227_304)">
<path d="M40.0137 26.626L38.0676 24.68C38.0335 24.6459 37.9993 24.6117 37.931 24.5776C40.4575 21.5731 40.2527 17.1348 37.4872 14.3693L31.3759 8.25802C28.986 5.90226 25.3329 5.356 22.3967 6.99479C19.2899 4.98045 15.2271 5.39014 12.5982 7.98488L7.30628 13.2426C4.2677 16.2812 4.2677 21.2317 7.30628 24.2703L17.9584 34.9224C19.0168 35.9808 21.4408 38.6779 22.0895 39.2925L24.0355 41.2385C24.8208 42.0238 26.084 42.0238 26.8693 41.2385C27.6545 40.4533 27.6545 39.1901 26.8693 38.4048L26.323 37.8585C25.9474 37.483 25.9816 36.9026 26.323 36.527C26.7668 36.1515 27.3472 36.3563 27.7911 36.8002L28.8153 37.8244C29.6006 38.6097 30.8638 38.6097 31.649 37.8244C32.4343 37.0392 32.4343 35.7759 31.649 34.9907L30.4882 33.8299C30.0785 33.4543 30.0444 32.8056 30.42 32.3618C30.6931 31.9521 31.4101 31.918 31.9905 32.4642L33.0488 33.5226C33.8341 34.3078 35.0973 34.3078 35.8826 33.5226C36.6678 32.7373 36.6678 31.4741 35.8826 30.6889C35.4729 30.3133 35.0632 29.9378 34.6876 29.5281C34.3803 29.1184 34.1072 28.8111 34.4486 28.3331C34.6193 28.0941 35.3704 27.7186 35.7801 28.0941C36.1216 28.4014 37.1117 29.4256 37.1117 29.4256C37.8969 30.2109 39.1601 30.2109 39.9454 29.4256C40.7306 28.6404 40.7989 27.4113 40.0137 26.626Z" fill="#FFD7C4"/>
<path d="M25.4352 42.5017C24.7524 42.5017 24.0695 42.2286 23.5233 41.7165L21.5772 39.7704C21.3041 39.4973 20.7237 38.8828 20.075 38.1658C19.1873 37.2098 18.0948 36.0149 17.4803 35.4004L6.82817 24.7483C3.5506 21.4365 3.5506 16.0764 6.82817 12.7647L12.1201 7.47275C14.8514 4.74144 19.1532 4.22932 22.4308 6.17538C25.5718 4.67316 29.3956 5.2877 31.8879 7.74588L37.9992 13.8913C40.8671 16.7933 41.2085 21.2658 38.8527 24.5093L39.2966 24.9531L40.4574 26.1139C41.5158 27.1723 41.5158 28.8794 40.4574 29.9036C39.399 30.962 37.6919 30.962 36.6677 29.9036L35.3703 28.6062C35.3362 28.6062 35.0972 28.6745 35.0289 28.7428V28.7769C35.063 28.8452 35.1655 28.9818 35.2338 29.0842C35.5752 29.4598 35.9507 29.8353 36.3263 30.1426L36.3604 30.1767C37.4188 31.2351 37.4188 32.9422 36.3604 33.9664C35.302 35.0248 33.595 35.0248 32.5707 33.9664L31.5124 32.908C31.2392 32.6349 31.0002 32.669 30.9661 32.7032V32.8739C30.8295 33.0105 30.8295 33.2494 31.0002 33.386L32.161 34.5468C33.2194 35.6052 33.2194 37.3123 32.161 38.3365C31.6489 38.8486 30.9661 39.1218 30.2491 39.1218C29.5322 39.1218 28.8493 38.8486 28.3372 38.3365L27.313 37.3123C27.1081 37.1074 26.9033 37.005 26.8008 37.0733C26.7667 37.1416 26.7326 37.2098 26.7326 37.244C26.7326 37.2781 26.7326 37.3464 26.8008 37.4147L27.3471 37.9609C28.4055 39.0193 28.4055 40.7264 27.3471 41.7506C26.8008 42.2628 26.118 42.5017 25.4352 42.5017ZM18.129 6.38022C16.2853 6.38022 14.4417 7.09719 13.076 8.46285L7.81827 13.7206C5.05282 16.4861 5.05282 20.9927 7.81827 23.7923L18.4704 34.4444C19.119 35.0931 20.1774 36.2197 21.0992 37.244C21.7479 37.9609 22.3283 38.5755 22.5673 38.8145L24.5134 40.7605C25.0255 41.2727 25.879 41.2727 26.3912 40.7605C26.6301 40.5215 26.7667 40.1801 26.7667 39.8387C26.7667 39.4973 26.6301 39.1559 26.3912 38.9169L25.8449 38.3706C25.5376 38.0634 25.3669 37.6537 25.3669 37.2098C25.3669 36.766 25.5376 36.3563 25.8449 36.0832L25.879 36.049C26.5277 35.4686 27.5178 35.6052 28.2689 36.3563L29.2932 37.3805C29.8053 37.8927 30.6588 37.8927 31.1709 37.3805C31.6831 36.8684 31.6831 36.0149 31.1709 35.5028L30.0101 34.342C29.3614 33.7274 29.2932 32.669 29.9077 31.9862C30.1467 31.6789 30.5223 31.4741 30.9661 31.44C31.5124 31.4058 32.0586 31.6107 32.5024 32.0545L33.5608 33.1129C34.0729 33.625 34.9265 33.625 35.4386 33.1129C35.9507 32.6008 35.9507 31.7814 35.4386 31.2692C34.9948 30.8937 34.5851 30.484 34.2095 30.0743L34.1754 30.0402C33.834 29.6305 33.2877 28.9135 33.9364 28.0258C34.1754 27.6844 34.7216 27.4113 35.1996 27.343C35.6093 27.3089 36.019 27.4113 36.2921 27.6844L37.6578 29.0501C38.1699 29.5622 39.0234 29.5622 39.5356 29.0501C39.7746 28.8111 39.9111 28.4697 39.9111 28.1282C39.9111 27.821 39.8087 27.5137 39.6038 27.3089L37.5895 25.2945C37.5554 25.2945 37.5212 25.2604 37.5212 25.2262L37.0091 24.7824L37.4529 24.2703C39.7746 21.5048 39.6038 17.5103 37.0432 14.9838L30.8978 8.73598C28.7469 6.58507 25.3669 6.10709 22.7039 7.57517L22.3283 7.78002L21.9869 7.54103C20.8261 6.75578 19.4605 6.38022 18.129 6.38022Z" fill="#132C47"/>
<path d="M0.921738 14.3693L12.9053 2.38573C13.2126 2.07846 13.6906 2.07846 13.9979 2.38573L15.7049 4.09279C16.0122 4.40007 16.0122 4.87804 15.7049 5.18532L3.72133 17.1689C3.41406 17.4762 2.93608 17.4762 2.6288 17.1689L0.921738 15.4619C0.614466 15.1546 0.614466 14.6766 0.921738 14.3693Z" fill="#132C47"/>
<path d="M3.14097 18.0909C2.76542 18.0909 2.38986 17.9544 2.11673 17.6471L0.409667 15.94C-0.170735 15.3596 -0.170735 14.4378 0.409667 13.8574L12.4274 1.90796C13.0078 1.32756 13.9296 1.32756 14.51 1.90796L16.2171 3.61502C16.7975 4.19543 16.7975 5.11724 16.2171 5.69765L4.19935 17.6471C3.89208 17.9202 3.51653 18.0909 3.14097 18.0909ZM1.39977 14.8475C1.36562 14.8817 1.36562 14.9499 1.39977 14.9841L3.10683 16.6912C3.14097 16.7253 3.20926 16.7253 3.2434 16.6912L15.227 4.67341C15.2611 4.63926 15.2611 4.57098 15.227 4.53684L13.5199 2.82977C13.4858 2.79563 13.4175 2.79563 13.3834 2.82977L1.39977 14.8475Z" fill="#62727A"/>
<path d="M31.1027 2.38579L43.0863 14.3694C43.3935 14.6767 43.3935 15.1546 43.0863 15.4619L41.3792 17.169C41.0719 17.4763 40.594 17.4763 40.2867 17.169L28.3031 5.18538C27.9958 4.87811 27.9958 4.36599 28.3031 4.05871L30.0102 2.35165C30.3174 2.07852 30.7954 2.07852 31.1027 2.38579Z" fill="#132C47"/>
<path d="M40.8671 18.0909C40.4916 18.0909 40.116 17.9543 39.8429 17.6471L27.8251 5.66347C27.2447 5.08306 27.2447 4.16125 27.8251 3.58084L29.5322 1.87378C30.1126 1.29338 31.0344 1.29338 31.6148 1.87378L43.5984 13.8574C44.1788 14.4378 44.1788 15.3596 43.5984 15.94L41.8913 17.6471C41.6182 17.9202 41.2427 18.0909 40.8671 18.0909ZM30.5564 2.82974C30.5223 2.82974 30.5223 2.82974 30.4881 2.86388L28.7811 4.57094C28.7469 4.60508 28.7469 4.67337 28.7811 4.70751L40.7647 16.6911C40.7988 16.7253 40.8671 16.7253 40.9012 16.6911L42.6083 14.984C42.6425 14.9499 42.6425 14.8816 42.6083 14.8475L30.6247 2.86388C30.5906 2.82974 30.5906 2.82974 30.5564 2.82974ZM28.3031 30.8256C28.1324 30.8256 27.9617 30.7573 27.8251 30.6208L25.6059 28.4016C25.3328 28.1285 25.3328 27.7188 25.6059 27.4456C25.8791 27.1725 26.2888 27.1725 26.5619 27.4456L28.7811 29.6648C29.0542 29.9379 29.0542 30.3476 28.7811 30.6208C28.6445 30.7573 28.4738 30.8256 28.3031 30.8256ZM32.4001 26.7287C32.2294 26.7287 32.0586 26.6604 31.9221 26.5238L29.7029 24.3046C29.4298 24.0315 29.4298 23.6218 29.7029 23.3487C29.976 23.0755 30.3857 23.0755 30.6589 23.3487L32.878 25.5679C33.1512 25.841 33.1512 26.2507 32.878 26.5238C32.7415 26.6604 32.5708 26.7287 32.4001 26.7287ZM24.0354 35.0933C23.8647 35.0933 23.694 35.025 23.5575 34.8884L21.3383 32.6693C21.0651 32.3961 21.0651 31.9864 21.3383 31.7133C21.6114 31.4402 22.0211 31.4402 22.2942 31.7133L24.5134 33.9325C24.7865 34.2056 24.7865 34.6153 24.5134 34.8884C24.3768 35.025 24.2061 35.0933 24.0354 35.0933Z" fill="#62727A"/>
<path d="M11.2325 24.7144C12.0177 25.4996 12.0177 26.7628 11.2325 27.5481L9.28644 29.46C8.50119 30.2453 7.23796 30.2453 6.45271 29.46C5.66746 28.6748 5.66746 27.4115 6.45271 26.6263L8.39876 24.6802C9.18401 23.9291 10.4472 23.9291 11.2325 24.7144Z" fill="#FFE2D1"/>
<path d="M7.88662 30.7232C7.20379 30.7232 6.52097 30.4501 5.9747 29.9379C5.46258 29.4258 5.18945 28.743 5.18945 28.026C5.18945 27.3091 5.46258 26.6262 5.9747 26.1141L7.92076 24.1681C8.97914 23.1097 10.6862 23.1097 11.7104 24.1681C12.2226 24.6802 12.4957 25.363 12.4957 26.08C12.4957 26.7969 12.2226 27.4798 11.7104 27.9919L9.76439 29.9379C9.25227 30.4842 8.56944 30.7232 7.88662 30.7232ZM9.83267 24.7826C9.49126 24.7826 9.14985 24.9192 8.91086 25.1582L6.9648 27.1042C6.72581 27.3432 6.58925 27.6846 6.58925 28.026C6.58925 28.3674 6.72581 28.7089 6.9648 28.9478C7.47692 29.46 8.33045 29.46 8.84257 28.9478L10.7886 27.0018C11.0276 26.7628 11.1642 26.4214 11.1642 26.08C11.1642 25.7386 11.0276 25.3971 10.7886 25.1582C10.4814 24.9192 10.1399 24.7826 9.83267 24.7826Z" fill="#132C47"/>
<path d="M15.3294 28.8111C16.1147 29.5963 16.1147 30.8595 15.3294 31.6448L13.3834 33.5567C12.5981 34.3419 11.3349 34.3419 10.5496 33.5567C9.76438 32.7714 9.76438 31.5082 10.5496 30.723L12.4957 28.7769C13.2809 28.0258 14.5442 28.0258 15.3294 28.8111Z" fill="#FFE2D1"/>
<path d="M11.9835 34.8201C11.2665 34.8201 10.5837 34.547 10.0716 34.0349L10.0374 34.0007C9.52533 33.4886 9.2522 32.8399 9.2522 32.123C9.2522 31.406 9.52533 30.7232 10.0374 30.211L11.9835 28.265C12.4956 27.7529 13.1785 27.4797 13.8954 27.4797C14.6124 27.4797 15.2952 27.7529 15.8073 28.265C16.3195 28.7771 16.5926 29.4599 16.5926 30.1769C16.5926 30.8939 16.3195 31.5767 15.8073 32.0888L13.8613 34.0349C13.3833 34.547 12.7005 34.8201 11.9835 34.8201ZM11.0617 33.1131C11.5738 33.591 12.4273 33.591 12.9053 33.1131L14.8514 31.167C15.0904 30.928 15.2269 30.5866 15.2269 30.2452C15.2269 29.9038 15.0904 29.5624 14.8514 29.3234C14.3393 28.8112 13.4857 28.8112 12.9736 29.3234L11.0275 31.2694C10.7886 31.5084 10.652 31.8498 10.652 32.1912C10.652 32.5327 10.7886 32.8399 11.0617 33.1131Z" fill="#132C47"/>
<path d="M19.3922 32.8741C20.1774 33.6593 20.1774 34.9226 19.3922 35.7078L17.0364 38.0636C16.2512 38.8488 14.988 38.8488 14.2027 38.0636C13.4175 37.2783 13.4175 36.0151 14.2027 35.2298L16.5585 32.8741C17.3437 32.0888 18.6069 32.0888 19.3922 32.8741Z" fill="#FFE2D1"/>
<path d="M15.6367 39.3267C14.9198 39.3267 14.2369 39.0536 13.7248 38.5415C13.2127 38.0294 12.9396 37.3465 12.9396 36.6296C12.9396 35.9126 13.2127 35.2298 13.7248 34.7177L16.0806 32.3619C16.5927 31.8498 17.2755 31.5767 17.9925 31.5767C18.7095 31.5767 19.3923 31.8498 19.9044 32.3619C20.4165 32.874 20.6897 33.5569 20.6897 34.2738C20.6897 34.9908 20.4165 35.6736 19.9044 36.1857L17.5487 38.5415C17.0024 39.0536 16.3537 39.3267 15.6367 39.3267ZM17.9925 32.9765C17.6511 32.9765 17.3097 33.113 17.0707 33.352L14.7149 35.7078C14.4759 35.9467 14.3394 36.2882 14.3394 36.6296C14.3394 36.971 14.4759 37.3124 14.7149 37.5514C15.227 38.0635 16.0806 38.0635 16.5927 37.5514L18.9484 35.1956C19.1874 34.9567 19.324 34.6152 19.324 34.2738C19.324 33.9324 19.1874 33.591 18.9484 33.352C18.6753 33.113 18.3339 32.9765 17.9925 32.9765Z" fill="#132C47"/>
<path d="M24.138 36.3224C24.9232 37.1076 24.9232 38.3708 24.138 39.1561L22.0554 41.2387C21.2701 42.024 20.0069 42.024 19.2216 41.2387C18.4364 40.4535 18.4364 39.1902 19.2216 38.405L21.3042 36.3224C22.0895 35.5713 23.3527 35.5713 24.138 36.3224Z" fill="#FFE2D1"/>
<path d="M20.6214 42.536C19.9044 42.536 19.2216 42.2629 18.7094 41.7508C18.1973 41.2387 17.9242 40.5558 17.9242 39.8389C17.9242 39.1219 18.1973 38.4391 18.7094 37.927L20.7921 35.8443C21.3042 35.3322 21.987 35.0591 22.704 35.0591C23.4209 35.0591 24.1038 35.3322 24.6159 35.8443C25.6743 36.9027 25.6743 38.6098 24.6159 39.634L22.5333 41.7508C22.0212 42.2288 21.3383 42.536 20.6214 42.536ZM22.704 36.4247C22.3626 36.4247 22.0212 36.5613 21.7822 36.8003L19.6995 38.8829C19.4606 39.1219 19.324 39.4633 19.324 39.8047C19.324 40.1461 19.4606 40.4876 19.6995 40.7265C20.2117 41.2387 21.0652 41.2387 21.5773 40.7265L23.6599 38.6439C24.1721 38.1318 24.1721 37.2783 23.6599 36.7661C23.3868 36.5613 23.0795 36.4247 22.704 36.4247Z" fill="#132C47"/>
<path d="M38.0675 25.3971C37.8968 25.3971 37.7261 25.3288 37.5895 25.1922L24.0354 12.0478L17.1389 18.9443C16.0805 20.0027 14.3734 20.0027 13.3492 18.9443C12.2908 17.886 12.2908 16.1789 13.3492 15.1547L21.9528 6.55104C22.226 6.27791 22.6356 6.27791 22.9088 6.55104C23.1819 6.82417 23.1819 7.23387 22.9088 7.507L14.3052 16.1106C13.793 16.6227 13.793 17.4763 14.3052 17.9884C14.8173 18.5005 15.6708 18.5005 16.1829 17.9884L24.0354 10.1359L38.5455 24.2362C38.8186 24.5094 38.8186 24.9191 38.5455 25.1922C38.4431 25.3288 38.2382 25.3971 38.0675 25.3971Z" fill="#132C47"/>
</g>
<defs>
<clipPath id="clip0_227_304">
<rect width="44" height="44" fill="white"/>
</clipPath>
</defs>
</svg>
