<svg width="45" height="45" viewBox="0 0 45 45" fill="none" xmlns="http://www.w3.org/2000/svg">
<g clip-path="url(#clip0_226_112)">
<path d="M24.75 39.75H20.25V44.25H24.75V39.75Z" fill="#62727A"/>
<path d="M5.25 39.75H0.75V44.25H5.25V39.75Z" fill="#62727A"/>
<path d="M44.25 39.75H39.75V44.25H44.25V39.75Z" fill="#62727A"/>
<path d="M44.25 36.75H0.75V39.75H44.25V36.75Z" fill="#CAA15A"/>
<path d="M27.75 18.75H2.25V36.75H27.75V18.75Z" fill="#F7931E"/>
<path d="M17.25 18.75H12.75V24.75H17.25V18.75Z" fill="#62727A"/>
<path d="M17.25 32.25H12.75V36.75H17.25V32.25Z" fill="#62727A"/>
<path d="M22.5 24.75H20.25V23.25C20.25 22.4212 20.9213 21.75 21.75 21.75H24V23.25C24 24.0788 23.3288 24.75 22.5 24.75Z" fill="#E65039"/>
<path d="M35.25 0.75H9.75V18.75H35.25V0.75Z" fill="#F7931E"/>
<path d="M35.25 0.75H9.75V2.25H35.25V0.75Z" fill="#FDC567"/>
<path d="M24.75 0.75H20.25V6.75H24.75V0.75Z" fill="#62727A"/>
<path d="M24.75 14.25H20.25V18.75H24.75V14.25Z" fill="#62727A"/>
<path d="M30 6.75H27.75V5.25C27.75 4.42125 28.4213 3.75 29.25 3.75H31.5V5.25C31.5 6.07875 30.8288 6.75 30 6.75Z" fill="#E65039"/>
<path d="M42.75 18.75H27.75V36.75H42.75V18.75Z" fill="#FDC567"/>
<path d="M37.5 18.75H33V24.75H37.5V18.75Z" fill="#CAA15A"/>
<path d="M37.5 32.25H33V36.75H37.5V32.25Z" fill="#CAA15A"/>
<path d="M44.25 36H43.5V18.75C43.5 18.336 43.1647 18 42.75 18H37.5H36V0.75C36 0.336 35.6647 0 35.25 0H24.75H20.25H9.75C9.336 0 9 0.336 9 0.75V18H2.25C1.836 18 1.5 18.336 1.5 18.75V36H0.75C0.336 36 0 36.336 0 36.75V39.75V44.25C0 44.664 0.336 45 0.75 45H5.25H20.25H24.75H39.75H44.25C44.6647 45 45 44.664 45 44.25V39.75V36.75C45 36.336 44.6647 36 44.25 36ZM42 30H41.25C40.8353 30 40.5 30.336 40.5 30.75C40.5 31.164 40.8353 31.5 41.25 31.5H42V33H41.25C40.8353 33 40.5 33.336 40.5 33.75C40.5 34.164 40.8353 34.5 41.25 34.5H42V36H38.25V32.25C38.25 31.836 37.9147 31.5 37.5 31.5H33C32.5853 31.5 32.25 31.836 32.25 32.25V36H28.5V19.5H32.25V24.75C32.25 25.164 32.5853 25.5 33 25.5H37.5C37.9147 25.5 38.25 25.164 38.25 24.75V19.5H42V30ZM36.75 36H33.75V33H36.75V36ZM36.75 24H33.75V19.5H35.25H36.75V24ZM24 1.5V6H21V1.5H24ZM10.5 1.5H19.5V6.75C19.5 7.164 19.836 7.5 20.25 7.5H24.75C25.1647 7.5 25.5 7.164 25.5 6.75V1.5H34.5V18H33H27.75H25.5V14.25C25.5 13.836 25.1647 13.5 24.75 13.5H20.25C19.836 13.5 19.5 13.836 19.5 14.25V18H17.25H12.75H10.5V1.5ZM24 18H21V15H24V18ZM13.5 19.5H16.5V24H13.5V19.5ZM3 19.5H9.75H12V24.75C12 25.164 12.336 25.5 12.75 25.5H17.25C17.664 25.5 18 25.164 18 24.75V19.5H20.25H24.75H27V36H18V32.25C18 31.836 17.664 31.5 17.25 31.5H12.75C12.336 31.5 12 31.836 12 32.25V36H3V19.5ZM16.5 36H13.5V33H16.5V36ZM1.5 37.5H2.25H12.75H17.25H27.75H33H37.5H42.75H43.5V39H39.75H24.75H20.25H5.25H1.5V37.5ZM1.5 40.5H4.5V43.5H1.5V40.5ZM6 40.5H19.5V43.5H6V40.5ZM21 40.5H24V43.5H21V40.5ZM25.5 40.5H39V43.5H25.5V40.5ZM43.5 43.5H40.5V40.5H43.5V43.5Z" fill="#132C47"/>
<path d="M6 22.5H8.25C8.664 22.5 9 22.164 9 21.75C9 21.336 8.664 21 8.25 21H6C5.586 21 5.25 21.336 5.25 21.75C5.25 22.164 5.586 22.5 6 22.5Z" fill="#132C47"/>
<path d="M9.75 24H6C5.586 24 5.25 24.336 5.25 24.75C5.25 25.164 5.586 25.5 6 25.5H9.75C10.164 25.5 10.5 25.164 10.5 24.75C10.5 24.336 10.164 24 9.75 24Z" fill="#132C47"/>
<path d="M21.75 30C21.336 30 21 30.336 21 30.75C21 31.164 21.336 31.5 21.75 31.5H24C24.4148 31.5 24.75 31.164 24.75 30.75C24.75 30.336 24.4148 30 24 30H21.75Z" fill="#132C47"/>
<path d="M20.25 34.5H24C24.4147 34.5 24.75 34.164 24.75 33.75C24.75 33.336 24.4147 33 24 33H20.25C19.836 33 19.5 33.336 19.5 33.75C19.5 34.164 19.836 34.5 20.25 34.5Z" fill="#132C47"/>
<path d="M20.25 25.5H22.5C23.7405 25.5 24.75 24.4905 24.75 23.25V21.75C24.75 21.336 24.4147 21 24 21H21.75C20.5095 21 19.5 22.0095 19.5 23.25V24.75C19.5 25.164 19.836 25.5 20.25 25.5ZM21 23.25C21 22.8368 21.3368 22.5 21.75 22.5H23.25V23.25C23.25 23.6632 22.9132 24 22.5 24H21V23.25Z" fill="#132C47"/>
<path d="M13.5 4.5H15.75C16.164 4.5 16.5 4.164 16.5 3.75C16.5 3.336 16.164 3 15.75 3H13.5C13.086 3 12.75 3.336 12.75 3.75C12.75 4.164 13.086 4.5 13.5 4.5Z" fill="#132C47"/>
<path d="M13.5 7.5H17.25C17.664 7.5 18 7.164 18 6.75C18 6.336 17.664 6 17.25 6H13.5C13.086 6 12.75 6.336 12.75 6.75C12.75 7.164 13.086 7.5 13.5 7.5Z" fill="#132C47"/>
<path d="M29.25 12C28.8353 12 28.5 12.336 28.5 12.75C28.5 13.164 28.8353 13.5 29.25 13.5H31.5C31.9148 13.5 32.25 13.164 32.25 12.75C32.25 12.336 31.9148 12 31.5 12H29.25Z" fill="#132C47"/>
<path d="M27.75 16.5H31.5C31.9147 16.5 32.25 16.164 32.25 15.75C32.25 15.336 31.9147 15 31.5 15H27.75C27.3353 15 27 15.336 27 15.75C27 16.164 27.3353 16.5 27.75 16.5Z" fill="#132C47"/>
<path d="M27.75 7.5H30C31.2405 7.5 32.25 6.4905 32.25 5.25V3.75C32.25 3.336 31.9147 3 31.5 3H29.25C28.0095 3 27 4.0095 27 5.25V6.75C27 7.164 27.3353 7.5 27.75 7.5ZM28.5 5.25C28.5 4.83675 28.836 4.5 29.25 4.5H30.75V5.25C30.75 5.66325 30.414 6 30 6H28.5V5.25Z" fill="#132C47"/>
</g>
<defs>
<clipPath id="clip0_226_112">
<rect width="45" height="45" fill="white"/>
</clipPath>
</defs>
</svg>
