<svg width="50" height="50" viewBox="0 0 50 50" fill="none" xmlns="http://www.w3.org/2000/svg">
<path d="M40.4939 32.8484H9.28448C6.50226 32.8484 4.2467 35.1145 4.2467 37.9101V40.8573H45.5317V37.9101C45.5317 35.1145 43.2756 32.8484 40.4939 32.8484Z" fill="#FFCA6C"/>
<path d="M18.8634 32.8484H9.28448C6.50226 32.8484 4.2467 35.1145 4.2467 37.9101V40.8573H13.8256V37.9101C13.8256 35.1145 16.0811 32.8484 18.8634 32.8484Z" fill="#F7931E"/>
<path d="M41.77 32.8485C41.77 23.4807 34.2122 15.8862 24.8889 15.8862C15.5661 15.8862 8.0083 23.4801 8.0083 32.8485" fill="#FFCA6C"/>
<path d="M27.6844 16.1195C26.7606 15.9647 25.8255 15.8868 24.8889 15.8867C15.5661 15.8867 8.0083 23.4806 8.0083 32.8489H13.5989C13.5989 24.4373 19.6916 17.4578 27.6844 16.1195Z" fill="#F7931E"/>
<path d="M21.8406 10.316C21.8405 10.7182 21.9193 11.1164 22.0725 11.488C22.2257 11.8596 22.4502 12.1972 22.7333 12.4816C23.0163 12.766 23.3524 12.9916 23.7223 13.1455C24.0921 13.2994 24.4886 13.3786 24.8889 13.3786C25.2893 13.3786 25.6857 13.2994 26.0555 13.1455C26.4254 12.9916 26.7615 12.766 27.0445 12.4816C27.3276 12.1972 27.5521 11.8596 27.7053 11.488C27.8585 11.1164 27.9373 10.7182 27.9372 10.316C27.9373 9.91386 27.8585 9.51562 27.7053 9.14405C27.5521 8.77248 27.3276 8.43485 27.0445 8.15046C26.7615 7.86606 26.4254 7.64047 26.0555 7.48655C25.6857 7.33264 25.2893 7.25342 24.8889 7.25342C24.4886 7.25342 24.0921 7.33264 23.7223 7.48655C23.3524 7.64047 23.0163 7.86606 22.7333 8.15046C22.4502 8.43485 22.2257 8.77248 22.0725 9.14405C21.9193 9.51562 21.8405 9.91386 21.8406 10.316Z" fill="#FFCA6C"/>
<path d="M24.2355 10.3166C24.2347 9.7176 24.4096 9.1315 24.7385 8.63087C25.0675 8.13023 25.536 7.73704 26.0861 7.49995C25.7079 7.33739 25.3005 7.25383 24.8888 7.2544C23.2055 7.2544 21.8411 8.62551 21.8411 10.3172C21.8411 12.0083 23.2061 13.3794 24.8888 13.3794C25.3138 13.3794 25.7183 13.2916 26.0861 13.1338C25.536 12.8965 25.0676 12.5031 24.7388 12.0025C24.4099 11.5018 24.2349 10.9157 24.2355 10.3166Z" fill="#F7931E"/>
<path d="M38.2711 28.7385C37.9872 28.7385 37.7222 28.5618 37.6206 28.2779C36.0567 23.8918 32.2761 20.5562 27.755 19.5718C27.3817 19.4907 27.145 19.1207 27.2261 18.7462C27.3072 18.3718 27.675 18.1335 28.0478 18.2146C30.5313 18.7598 32.8337 19.932 34.7356 21.6196C36.6289 23.2983 38.0687 25.4272 38.9217 27.8096C38.9589 27.9142 38.9706 28.0261 38.9557 28.1361C38.9408 28.2462 38.8999 28.351 38.8362 28.4419C38.7725 28.5329 38.688 28.6072 38.5897 28.6588C38.4914 28.7104 38.3821 28.7377 38.2711 28.7385ZM42.4267 36.4007C42.3197 36.4007 42.2143 36.3758 42.1186 36.328C42.0229 36.2801 41.9397 36.2107 41.8756 36.1251C41.7395 35.944 41.4106 35.819 41.3067 35.794C41.1309 35.7481 40.9801 35.6352 40.8866 35.4794C40.7931 35.3236 40.7644 35.1374 40.8066 34.9607C40.8489 34.7839 40.9587 34.6308 41.1125 34.5341C41.2663 34.4374 41.4519 34.4049 41.6295 34.4435C41.7184 34.4651 42.5145 34.6712 42.9778 35.2874C43.0552 35.3903 43.1024 35.5128 43.1143 35.641C43.1262 35.7693 43.1022 35.8983 43.0451 36.0137C42.9879 36.1291 42.8999 36.2264 42.7907 36.2948C42.6815 36.3631 42.5555 36.3998 42.4267 36.4007Z" fill="white"/>
<path d="M42.4567 32.5023C42.2767 23.1573 34.8355 15.569 25.5794 15.2073V14.0078C26.4374 13.843 27.2111 13.3842 27.7673 12.7106C28.3236 12.0369 28.6277 11.1904 28.6272 10.3167C28.6273 9.68214 28.4676 9.05775 28.1628 8.50118C28.1191 8.42153 28.0602 8.35129 27.9893 8.29449C27.9184 8.2377 27.837 8.19546 27.7498 8.17022C27.6625 8.14498 27.5712 8.13722 27.4809 8.14739C27.3907 8.15757 27.3033 8.18548 27.2239 8.22951C27.0634 8.31924 26.945 8.46879 26.8944 8.64552C26.8438 8.82225 26.8652 9.01182 26.9539 9.17284C27.1455 9.52062 27.2461 9.91562 27.2461 10.3167C27.2461 11.6228 26.1889 12.6851 24.8889 12.6851C23.5889 12.6851 22.5317 11.6228 22.5317 10.3167C22.5317 9.01062 23.5889 7.9484 24.8883 7.9484C25.21 7.9484 25.5217 8.01229 25.8144 8.13784C25.8979 8.17362 25.9877 8.19254 26.0785 8.19352C26.1694 8.1945 26.2595 8.17751 26.3438 8.14354C26.428 8.10957 26.5047 8.05929 26.5695 7.99557C26.6342 7.93186 26.6858 7.85598 26.7211 7.77229C26.7935 7.60326 26.7959 7.41242 26.7278 7.24161C26.6597 7.07081 26.5266 6.934 26.3578 6.86118C25.8936 6.66153 25.3936 6.55906 24.8883 6.56007C22.8272 6.56007 21.15 8.24507 21.15 10.3167C21.1497 11.1904 21.4539 12.0369 22.0101 12.7106C22.5663 13.3843 23.3399 13.8432 24.1978 14.0084V15.2073C21.9148 15.2913 19.671 15.826 17.5955 16.7806C17.4287 16.8576 17.2991 16.9976 17.2352 17.1699C17.1712 17.3422 17.1782 17.5328 17.2544 17.7001C17.2917 17.7829 17.3451 17.8575 17.4113 17.9196C17.4776 17.9818 17.5555 18.0302 17.6405 18.0621C17.7255 18.094 17.8161 18.1088 17.9068 18.1056C17.9976 18.1024 18.0869 18.0812 18.1694 18.0434C20.2767 17.0744 22.5695 16.5752 24.8889 16.5806C33.5939 16.5806 40.7155 23.5201 41.0644 32.1828C40.8748 32.1637 40.6844 32.1541 40.4939 32.154H9.28443C9.09165 32.154 8.90165 32.164 8.71388 32.1828C8.8135 29.5932 9.53137 27.065 10.8075 24.8095C12.0836 22.5539 13.881 20.6364 16.0494 19.2173C16.203 19.1162 16.3104 18.9584 16.348 18.7784C16.3855 18.5984 16.3503 18.4108 16.25 18.2567C16.2006 18.1805 16.1367 18.1148 16.0619 18.0633C15.987 18.0119 15.9027 17.9758 15.8139 17.957C15.725 17.9383 15.6333 17.9373 15.5441 17.9541C15.4548 17.971 15.3698 18.0053 15.2939 18.0551C10.3955 21.2684 7.43499 26.6495 7.32276 32.5023C6.21733 32.9105 5.26357 33.6477 4.58999 34.6146C3.91642 35.5815 3.55538 36.7317 3.55554 37.9101V40.8573C3.55554 41.2401 3.86499 41.5512 4.24665 41.5512H45.5317C45.9128 41.5512 46.2222 41.2401 46.2222 40.8573V37.9101C46.2222 35.4284 44.6511 33.309 42.4567 32.5023ZM4.93721 40.1628V37.9101C4.93721 35.5012 6.88721 33.5423 9.28443 33.5423H40.4933C42.6555 33.5423 44.4533 35.1362 44.7855 37.2162H39.35C38.9683 37.2162 38.6594 37.5273 38.6594 37.9101C38.6594 38.2934 38.9689 38.6045 39.35 38.6045H44.8411V40.1628H4.93721Z" fill="#132C47"/>
<path d="M36.955 37.2161H16.0467C15.665 37.2161 15.3556 37.5272 15.3556 37.91C15.3556 38.2933 15.665 38.6044 16.0467 38.6044H36.9544C37.3361 38.6044 37.645 38.2933 37.645 37.91C37.6453 37.8191 37.6277 37.729 37.5931 37.645C37.5586 37.5609 37.5079 37.4845 37.4438 37.42C37.3797 37.3556 37.3036 37.3044 37.2197 37.2694C37.1358 37.2344 37.0459 37.2163 36.955 37.2161ZM13.8256 37.2161H7.94111C7.55944 37.2161 7.25 37.5272 7.25 37.91C7.25 38.2933 7.55944 38.6044 7.94111 38.6044H13.825C14.2067 38.6044 14.5161 38.2933 14.5161 37.91C14.5161 37.5272 14.2072 37.2161 13.8256 37.2161Z" fill="#62727A"/>
</svg>
