<svg width="167" height="37" viewBox="0 0 167 37" fill="none" xmlns="http://www.w3.org/2000/svg">
<path d="M0.078125 20.6328C0.078125 20.5286 0.110677 20.418 0.175781 20.3008C0.240885 20.1836 0.325521 20.0729 0.429688 19.9688C0.533854 19.8646 0.644531 19.7799 0.761719 19.7148C0.878906 19.6497 0.989583 19.6172 1.09375 19.6172C1.11979 19.6172 1.15885 19.6172 1.21094 19.6172C1.27604 19.6172 1.32161 19.6237 1.34766 19.6367C1.19141 19.806 1.10026 19.9753 1.07422 20.1445C1.0612 20.3138 1.05469 20.4961 1.05469 20.6914C1.05469 20.9909 1.11979 21.2383 1.25 21.4336C1.39323 21.6159 1.56901 21.7656 1.77734 21.8828C1.98568 21.987 2.21354 22.0586 2.46094 22.0977C2.72135 22.1497 2.96875 22.1758 3.20312 22.1758C4.17969 22.1758 5.07812 22.0456 5.89844 21.7852C6.71875 21.5117 7.46745 21.1471 8.14453 20.6914C8.83464 20.2227 9.45964 19.6758 10.0195 19.0508C10.5794 18.4128 11.0938 17.7292 11.5625 17C12.0443 16.2578 12.4805 15.4896 12.8711 14.6953C13.2747 13.901 13.6523 13.1003 14.0039 12.293H13.9453H13.9062C13.8932 12.293 13.8867 12.2865 13.8867 12.2734C13.4961 12.2734 13.1185 12.3841 12.7539 12.6055C12.3893 12.8138 12.0247 13.0547 11.6602 13.3281C11.2956 13.5885 10.9245 13.8294 10.5469 14.0508C10.1693 14.2591 9.77865 14.3633 9.375 14.3633C9.375 14.2591 9.52474 14.0638 9.82422 13.7773C10.1367 13.4909 10.5273 13.1589 10.9961 12.7812C11.4648 12.4036 11.9661 12.0065 12.5 11.5898C13.0469 11.1732 13.5482 10.7956 14.0039 10.457C14.4727 10.1055 14.8633 9.81901 15.1758 9.59766C15.4883 9.36328 15.6445 9.24609 15.6445 9.24609C15.8919 9.24609 16.0677 9.35026 16.1719 9.55859C16.276 9.75391 16.3281 9.95573 16.3281 10.1641C16.3281 10.2031 16.3216 10.2682 16.3086 10.3594C16.3086 10.4505 16.3021 10.5026 16.2891 10.5156C15.7161 11.7526 15.2409 12.7812 14.8633 13.6016C14.4857 14.4219 14.1797 15.0794 13.9453 15.5742C13.7109 16.069 13.5352 16.4401 13.418 16.6875C13.3138 16.9219 13.2422 17.0781 13.2031 17.1562C13.1771 17.2344 13.1706 17.2669 13.1836 17.2539C13.2096 17.2279 13.2422 17.2083 13.2812 17.1953C13.4115 17.1432 13.6654 17.0781 14.043 17C14.4336 16.9089 14.8438 16.8177 15.2734 16.7266C15.7161 16.6354 16.1263 16.5573 16.5039 16.4922C16.8945 16.4141 17.1615 16.362 17.3047 16.3359L17.5391 16.1016C18.112 14.9036 18.6979 13.7188 19.2969 12.5469C19.9089 11.362 20.5078 10.1771 21.0938 8.99219C21.3411 8.78385 21.5039 8.73828 21.582 8.85547C21.6602 8.95964 21.6927 9.13542 21.6797 9.38281C21.6797 9.63021 21.6406 9.89714 21.5625 10.1836C21.4844 10.457 21.4128 10.6589 21.3477 10.7891L16.543 21.3945C16.4258 21.6549 16.3021 21.8112 16.1719 21.8633C16.0417 21.9154 15.8789 21.9414 15.6836 21.9414C15.5664 21.9414 15.4362 21.9349 15.293 21.9219C15.1497 21.9089 15.0586 21.8242 15.0195 21.668C15.2669 21.4466 15.4948 21.1667 15.7031 20.8281C15.9245 20.4766 16.1133 20.1185 16.2695 19.7539C16.4258 19.3763 16.543 19.0052 16.6211 18.6406C16.7122 18.263 16.7578 17.931 16.7578 17.6445C16.7318 17.6445 16.6927 17.638 16.6406 17.625C16.6016 17.612 16.569 17.612 16.543 17.625C16.1393 17.7552 15.7096 17.8594 15.2539 17.9375C14.7982 18.0026 14.3424 18.0807 13.8867 18.1719C13.431 18.25 12.9948 18.3607 12.5781 18.5039C12.1615 18.6471 11.7969 18.8555 11.4844 19.1289C10.7292 19.7669 10.0781 20.3398 9.53125 20.8477C8.98438 21.3424 8.42448 21.7656 7.85156 22.1172C7.27865 22.4688 6.63411 22.7357 5.91797 22.918C5.20182 23.1003 4.3099 23.1914 3.24219 23.1914C2.8125 23.1914 2.40885 23.1458 2.03125 23.0547C1.65365 22.9766 1.3151 22.8398 1.01562 22.6445C0.729167 22.4492 0.501302 22.1888 0.332031 21.8633C0.16276 21.5378 0.078125 21.1276 0.078125 20.6328ZM20.1367 20.7305C20.2539 19.9883 20.4753 19.3047 20.8008 18.6797C21.1263 18.0547 21.4974 17.5143 21.9141 17.0586C22.3438 16.5898 22.806 16.2057 23.3008 15.9062C23.7956 15.6068 24.2773 15.418 24.7461 15.3398C25.2148 15.2487 25.6445 15.2682 26.0352 15.3984C26.4388 15.5286 26.7643 15.7891 27.0117 16.1797C27.0117 16.4792 26.9401 16.7656 26.7969 17.0391C26.6667 17.3125 26.5169 17.5859 26.3477 17.8594C26.1914 18.1328 26.0417 18.4128 25.8984 18.6992C25.7682 18.9857 25.7031 19.2917 25.7031 19.6172C25.7031 19.9557 25.7747 20.2292 25.918 20.4375C26.0742 20.6328 26.3411 20.7305 26.7188 20.7305C27.0312 20.7305 27.3307 20.6849 27.6172 20.5938C27.9167 20.5026 28.2161 20.457 28.5156 20.457C28.5677 20.457 28.6523 20.4635 28.7695 20.4766C28.8997 20.4766 28.9844 20.4766 29.0234 20.4766C28.8672 20.6979 28.6654 20.8867 28.418 21.043C28.1706 21.1992 27.9102 21.3359 27.6367 21.4531C27.3633 21.5573 27.0768 21.6354 26.7773 21.6875C26.4909 21.7396 26.224 21.7656 25.9766 21.7656C25.7422 21.7656 25.5339 21.7135 25.3516 21.6094C25.1693 21.5052 25.013 21.3685 24.8828 21.1992C24.7526 21.0299 24.6484 20.8411 24.5703 20.6328C24.5052 20.4115 24.4727 20.1966 24.4727 19.9883C24.2773 20.2096 24.0625 20.444 23.8281 20.6914C23.6068 20.9258 23.3659 21.1406 23.1055 21.3359C22.8581 21.5312 22.5846 21.694 22.2852 21.8242C21.9987 21.9544 21.6992 22.0195 21.3867 22.0195C21.0482 22.0195 20.7552 21.8958 20.5078 21.6484C20.2604 21.388 20.1367 21.082 20.1367 20.7305ZM21.4258 20.125C21.4258 20.2292 21.4258 20.3464 21.4258 20.4766C21.4388 20.6068 21.5234 20.6914 21.6797 20.7305C22.0052 20.6523 22.3763 20.4831 22.793 20.2227C23.2096 19.9492 23.6003 19.6367 23.9648 19.2852C24.3294 18.9206 24.6354 18.5365 24.8828 18.1328C25.1302 17.7161 25.2539 17.319 25.2539 16.9414C25.2539 16.9154 25.2474 16.8763 25.2344 16.8242C25.2344 16.7591 25.2344 16.7135 25.2344 16.6875C24.7917 16.6875 24.3424 16.7786 23.8867 16.9609C23.431 17.1432 23.0208 17.3971 22.6562 17.7227C22.2917 18.0352 21.9922 18.3997 21.7578 18.8164C21.5365 19.2331 21.4258 19.6693 21.4258 20.125ZM37.8516 22.0195C37.6042 22.0195 37.3763 21.974 37.168 21.8828C36.9727 21.7917 36.8099 21.6615 36.6797 21.4922C36.5495 21.3229 36.4583 21.1341 36.4062 20.9258C36.3542 20.7044 36.3607 20.4701 36.4258 20.2227C36.4258 19.806 36.4974 19.4219 36.6406 19.0703C36.7969 18.7057 36.9661 18.3607 37.1484 18.0352C37.3438 17.6966 37.513 17.3646 37.6562 17.0391C37.8125 16.7005 37.8906 16.3424 37.8906 15.9648C37.6042 15.9648 37.2982 16.056 36.9727 16.2383C36.6471 16.4206 36.3151 16.6615 35.9766 16.9609C35.651 17.2604 35.3255 17.599 35 17.9766C34.6875 18.3411 34.388 18.7122 34.1016 19.0898C33.8281 19.4544 33.5872 19.806 33.3789 20.1445C33.1836 20.4831 33.0339 20.763 32.9297 20.9844C32.9036 20.9974 32.8385 21.0104 32.7344 21.0234C32.6302 21.0234 32.5651 21.0234 32.5391 21.0234C32.3307 21.1276 32.2005 21.1276 32.1484 21.0234C32.1094 20.9062 32.1094 20.7305 32.1484 20.4961C32.2005 20.2617 32.2786 20.0013 32.3828 19.7148C32.487 19.4154 32.5846 19.1354 32.6758 18.875C32.7799 18.6016 32.8581 18.3802 32.9102 18.2109C32.9622 18.0286 32.9688 17.9375 32.9297 17.9375C32.9688 17.8854 33.0143 17.8008 33.0664 17.6836C33.1185 17.5664 33.1706 17.4427 33.2227 17.3125C33.2747 17.1823 33.3203 17.0651 33.3594 16.9609C33.3984 16.8438 33.418 16.7526 33.418 16.6875C33.418 16.5703 33.3724 16.4987 33.2812 16.4727C33.2031 16.4336 33.125 16.4141 33.0469 16.4141C32.8125 16.2839 32.5586 16.362 32.2852 16.6484C32.0247 16.9219 31.7383 17.319 31.4258 17.8398C31.1263 18.3477 30.7943 18.9336 30.4297 19.5977C30.0781 20.2487 29.6875 20.8802 29.2578 21.4922C28.9583 21.4922 28.7305 21.4531 28.5742 21.375C28.418 21.2969 28.3398 21.1016 28.3398 20.7891C28.444 20.6458 28.6003 20.3789 28.8086 19.9883C29.0169 19.5846 29.2513 19.1419 29.5117 18.6602C29.7721 18.1784 30.0456 17.6901 30.332 17.1953C30.6315 16.7005 30.9115 16.2839 31.1719 15.9453C31.4453 15.5938 31.6862 15.3594 31.8945 15.2422C32.1159 15.112 32.2917 15.1706 32.4219 15.418C32.6432 15.2747 32.8841 15.151 33.1445 15.0469C33.418 14.9427 33.6914 14.8906 33.9648 14.8906C34.1471 14.8906 34.2969 14.9492 34.4141 15.0664C34.5443 15.1706 34.6419 15.3073 34.707 15.4766C34.7852 15.6328 34.8438 15.8021 34.8828 15.9844C34.9219 16.1536 34.9414 16.3034 34.9414 16.4336C35.0846 16.3424 35.319 16.1862 35.6445 15.9648C35.9831 15.7305 36.3411 15.4961 36.7188 15.2617C37.1094 15.0273 37.487 14.8255 37.8516 14.6562C38.2292 14.474 38.5352 14.3828 38.7695 14.3828C38.9779 14.3828 39.1536 14.4609 39.2969 14.6172C39.4531 14.7604 39.5312 14.9427 39.5312 15.1641C39.0625 16.3099 38.6914 17.2279 38.418 17.918C38.1576 18.6081 37.9818 19.1484 37.8906 19.5391C37.8125 19.9167 37.8125 20.1901 37.8906 20.3594C37.9818 20.5156 38.138 20.6393 38.3594 20.7305C38.7109 20.7305 39.0495 20.6719 39.375 20.5547C39.7005 20.4375 40.0195 20.3073 40.332 20.1641C40.6576 20.0208 40.9831 19.8906 41.3086 19.7734C41.6341 19.6562 41.9792 19.5977 42.3438 19.5977C42.3438 19.7409 42.3047 19.8776 42.2266 20.0078C42.1615 20.125 42.0573 20.2161 41.9141 20.2812C41.8099 20.3464 41.6211 20.4505 41.3477 20.5938C41.0872 20.724 40.8008 20.8672 40.4883 21.0234C40.1758 21.1667 39.8763 21.3099 39.5898 21.4531C39.3164 21.5964 39.1211 21.694 39.0039 21.7461C38.7435 21.8633 38.5417 21.9414 38.3984 21.9805C38.2682 22.0065 38.0859 22.0195 37.8516 22.0195ZM41.9141 20.7305C42.0312 19.9883 42.2526 19.3047 42.5781 18.6797C42.9036 18.0547 43.2747 17.5143 43.6914 17.0586C44.1211 16.5898 44.5833 16.2057 45.0781 15.9062C45.5729 15.6068 46.0547 15.418 46.5234 15.3398C46.9922 15.2487 47.4219 15.2682 47.8125 15.3984C48.2161 15.5286 48.5417 15.7891 48.7891 16.1797C48.7891 16.4792 48.7174 16.7656 48.5742 17.0391C48.444 17.3125 48.2943 17.5859 48.125 17.8594C47.9688 18.1328 47.819 18.4128 47.6758 18.6992C47.5456 18.9857 47.4805 19.2917 47.4805 19.6172C47.4805 19.9557 47.5521 20.2292 47.6953 20.4375C47.8516 20.6328 48.1185 20.7305 48.4961 20.7305C48.8086 20.7305 49.1081 20.6849 49.3945 20.5938C49.694 20.5026 49.9935 20.457 50.293 20.457C50.3451 20.457 50.4297 20.4635 50.5469 20.4766C50.6771 20.4766 50.7617 20.4766 50.8008 20.4766C50.6445 20.6979 50.4427 20.8867 50.1953 21.043C49.9479 21.1992 49.6875 21.3359 49.4141 21.4531C49.1406 21.5573 48.8542 21.6354 48.5547 21.6875C48.2682 21.7396 48.0013 21.7656 47.7539 21.7656C47.5195 21.7656 47.3112 21.7135 47.1289 21.6094C46.9466 21.5052 46.7904 21.3685 46.6602 21.1992C46.5299 21.0299 46.4258 20.8411 46.3477 20.6328C46.2826 20.4115 46.25 20.1966 46.25 19.9883C46.0547 20.2096 45.8398 20.444 45.6055 20.6914C45.3841 20.9258 45.1432 21.1406 44.8828 21.3359C44.6354 21.5312 44.362 21.694 44.0625 21.8242C43.776 21.9544 43.4766 22.0195 43.1641 22.0195C42.8255 22.0195 42.5326 21.8958 42.2852 21.6484C42.0378 21.388 41.9141 21.082 41.9141 20.7305ZM43.2031 20.125C43.2031 20.2292 43.2031 20.3464 43.2031 20.4766C43.2161 20.6068 43.3008 20.6914 43.457 20.7305C43.7826 20.6523 44.1536 20.4831 44.5703 20.2227C44.987 19.9492 45.3776 19.6367 45.7422 19.2852C46.1068 18.9206 46.4128 18.5365 46.6602 18.1328C46.9076 17.7161 47.0312 17.319 47.0312 16.9414C47.0312 16.9154 47.0247 16.8763 47.0117 16.8242C47.0117 16.7591 47.0117 16.7135 47.0117 16.6875C46.569 16.6875 46.1198 16.7786 45.6641 16.9609C45.2083 17.1432 44.7982 17.3971 44.4336 17.7227C44.069 18.0352 43.7695 18.3997 43.5352 18.8164C43.3138 19.2331 43.2031 19.6693 43.2031 20.125ZM50.2344 20.0664C50.2344 19.4154 50.4167 18.7773 50.7812 18.1523C51.1589 17.5273 51.6341 16.974 52.207 16.4922C52.7799 16.0104 53.4115 15.6263 54.1016 15.3398C54.7917 15.0404 55.4492 14.8906 56.0742 14.8906C56.3216 14.8906 56.556 14.9362 56.7773 15.0273C56.9987 15.1185 57.2331 15.1641 57.4805 15.1641H57.5977C57.6628 15.0208 57.7865 14.7669 57.9688 14.4023C58.1641 14.0378 58.3659 13.6536 58.5742 13.25C58.7956 12.8464 59.0039 12.4688 59.1992 12.1172C59.3945 11.7526 59.5378 11.4987 59.6289 11.3555C59.7721 11.1081 59.9674 10.8021 60.2148 10.4375C60.4622 10.0599 60.7031 9.69531 60.9375 9.34375C61.1849 8.99219 61.3997 8.69271 61.582 8.44531C61.7643 8.19792 61.8685 8.07422 61.8945 8.07422L62.6562 8.83594C62.6562 8.86198 62.6042 8.97917 62.5 9.1875C62.4089 9.39583 62.2852 9.66927 62.1289 10.0078C61.9727 10.3333 61.7904 10.6979 61.582 11.1016C61.3867 11.5052 61.1849 11.9089 60.9766 12.3125C60.7682 12.7161 60.5664 13.1068 60.3711 13.4844C60.1888 13.849 60.026 14.1549 59.8828 14.4023C59.4792 15.0143 59.069 15.6393 58.6523 16.2773C58.2487 16.9023 57.9232 17.4883 57.6758 18.0352C57.4414 18.569 57.3242 19.0378 57.3242 19.4414C57.3372 19.8451 57.5586 20.125 57.9883 20.2812C58.7695 20.138 59.3555 20.0794 59.7461 20.1055C60.1367 20.1315 60.3776 20.2031 60.4688 20.3203C60.5729 20.4245 60.5599 20.5547 60.4297 20.7109C60.2995 20.8542 60.0911 20.9844 59.8047 21.1016C59.5312 21.2188 59.2122 21.2969 58.8477 21.3359C58.4831 21.375 58.1185 21.3359 57.7539 21.2188C57.3893 21.1016 57.0573 20.8867 56.7578 20.5742C56.4583 20.2617 56.2305 19.8125 56.0742 19.2266L53.0469 21.7461C53.0469 21.7461 52.9948 21.7591 52.8906 21.7852C52.7995 21.8112 52.6823 21.8372 52.5391 21.8633C52.4089 21.8893 52.2721 21.9154 52.1289 21.9414C51.9857 21.9674 51.8685 21.987 51.7773 22H51.6602C51.3607 22 51.1133 21.9479 50.918 21.8438C50.7357 21.7266 50.5924 21.5833 50.4883 21.4141C50.3841 21.2318 50.3125 21.0234 50.2734 20.7891C50.2474 20.5547 50.2344 20.3138 50.2344 20.0664ZM51.5039 19.8516C51.5039 19.9297 51.4974 20.0208 51.4844 20.125C51.4844 20.2292 51.4909 20.3268 51.5039 20.418C51.5299 20.4961 51.569 20.5677 51.6211 20.6328C51.6862 20.6979 51.7773 20.7305 51.8945 20.7305C52.0638 20.7305 52.2656 20.6719 52.5 20.5547C52.7474 20.4245 52.9883 20.2747 53.2227 20.1055C53.457 19.9362 53.6719 19.7669 53.8672 19.5977C54.0755 19.4284 54.2253 19.3047 54.3164 19.2266C54.4076 19.1354 54.5768 18.9727 54.8242 18.7383C55.0716 18.4909 55.3255 18.2305 55.5859 17.957C55.8594 17.6836 56.1133 17.4297 56.3477 17.1953C56.582 16.9609 56.7448 16.7917 56.8359 16.6875V16.6289C56.8359 16.6029 56.8359 16.5898 56.8359 16.5898C56.849 16.5768 56.8555 16.5638 56.8555 16.5508C56.8555 16.4336 56.8164 16.349 56.7383 16.2969C56.6732 16.2318 56.5885 16.1927 56.4844 16.1797C56.3932 16.1536 56.2956 16.1471 56.1914 16.1602C56.0872 16.1602 56.0026 16.1602 55.9375 16.1602C55.4688 16.1602 54.974 16.2578 54.4531 16.4531C53.9323 16.6484 53.4505 16.9154 53.0078 17.2539C52.5781 17.5794 52.2201 17.9701 51.9336 18.4258C51.6471 18.8685 51.5039 19.3438 51.5039 19.8516ZM72.8906 20.3984C73.0208 20.3984 73.1836 20.3984 73.3789 20.3984C73.5872 20.3984 73.7891 20.418 73.9844 20.457C74.1797 20.4961 74.349 20.5612 74.4922 20.6523C74.6354 20.7435 74.707 20.8867 74.707 21.082C74.707 21.3685 74.6289 21.5964 74.4727 21.7656C74.3164 21.9349 74.0951 22.0195 73.8086 22.0195C73.7695 22.0195 73.6979 22.0195 73.5938 22.0195C73.5026 22.0195 73.4049 22.013 73.3008 22C73.1966 21.974 73.099 21.9414 73.0078 21.9023C72.9297 21.8633 72.8906 21.8112 72.8906 21.7461V20.3984ZM88.2031 21.1211C88.2031 20.7956 88.2227 20.4701 88.2617 20.1445C88.3138 19.819 88.3659 19.5 88.418 19.1875C88.4831 18.862 88.5352 18.5365 88.5742 18.2109C88.6263 17.8724 88.6523 17.5339 88.6523 17.1953C88.2227 17.1953 87.8516 17.2148 87.5391 17.2539C87.2266 17.293 86.9206 17.332 86.6211 17.3711C86.3216 17.4102 86.0026 17.4427 85.6641 17.4688C85.3255 17.4818 84.9154 17.4753 84.4336 17.4492C84.082 17.8398 83.6784 18.2565 83.2227 18.6992C82.7799 19.1419 82.3047 19.5521 81.7969 19.9297C81.2891 20.3073 80.7552 20.6263 80.1953 20.8867C79.6354 21.1341 79.069 21.2578 78.4961 21.2578C78.1055 21.2578 77.7279 21.1927 77.3633 21.0625C77.0117 20.9323 76.6992 20.75 76.4258 20.5156C76.1523 20.2812 75.9375 20.0013 75.7812 19.6758C75.625 19.3372 75.5469 18.9661 75.5469 18.5625C75.5469 18.3542 75.5794 18.1979 75.6445 18.0938C75.7227 17.9766 75.8789 17.918 76.1133 17.918C76.2305 17.918 76.3346 18.0286 76.4258 18.25C76.5169 18.4583 76.6341 18.6992 76.7773 18.9727C76.9336 19.2331 77.1289 19.474 77.3633 19.6953C77.5977 19.9036 77.9167 20.0078 78.3203 20.0078C78.8151 20.0078 79.2969 19.9167 79.7656 19.7344C80.2474 19.5391 80.7031 19.2982 81.1328 19.0117C81.5755 18.7122 81.9857 18.3802 82.3633 18.0156C82.7539 17.651 83.1055 17.293 83.418 16.9414C83.3789 16.6159 83.2617 16.375 83.0664 16.2188C82.8711 16.0625 82.6628 15.9062 82.4414 15.75C82.2331 15.5938 82.0443 15.3854 81.875 15.125C81.7057 14.8646 81.6211 14.4544 81.6211 13.8945C81.6211 13.1003 81.862 12.4818 82.3438 12.0391C82.8255 11.5833 83.4831 11.3555 84.3164 11.3555C84.5638 11.3555 84.8047 11.3815 85.0391 11.4336C85.2865 11.4857 85.5339 11.5508 85.7812 11.6289C86.0286 11.694 86.2695 11.7526 86.5039 11.8047C86.7513 11.8568 86.9987 11.8828 87.2461 11.8828C87.4023 11.8828 87.526 11.8633 87.6172 11.8242C87.7214 11.7852 87.8125 11.7266 87.8906 11.6484C87.9688 11.5703 88.0534 11.4661 88.1445 11.3359C88.2357 11.2057 88.3529 11.0495 88.4961 10.8672C88.5742 10.763 88.6914 10.6003 88.8477 10.3789C89.0169 10.1445 89.1992 9.89062 89.3945 9.61719C89.5898 9.33073 89.7982 9.03125 90.0195 8.71875C90.2409 8.40625 90.4492 8.10677 90.6445 7.82031C90.8398 7.53385 91.0156 7.27995 91.1719 7.05859C91.3281 6.83724 91.4388 6.66797 91.5039 6.55078C91.6471 6.43359 91.7773 6.36198 91.8945 6.33594C92.0117 6.29688 92.1484 6.27734 92.3047 6.27734C92.4609 6.27734 92.5781 6.33594 92.6562 6.45312C92.7344 6.55729 92.7799 6.6875 92.793 6.84375C92.819 7 92.8255 7.16276 92.8125 7.33203C92.8125 7.48828 92.8125 7.61198 92.8125 7.70312C92.8125 7.74219 92.8125 7.80729 92.8125 7.89844C92.8125 7.97656 92.806 8.0612 92.793 8.15234C92.793 8.24349 92.793 8.33464 92.793 8.42578C92.793 8.50391 92.793 8.55599 92.793 8.58203C92.7539 8.71224 92.6888 8.90755 92.5977 9.16797C92.5195 9.42839 92.4284 9.72786 92.3242 10.0664C92.2201 10.3919 92.1094 10.737 91.9922 11.1016C91.888 11.4661 91.7839 11.8177 91.6797 12.1562C91.5885 12.4948 91.5039 12.7943 91.4258 13.0547C91.3477 13.3151 91.2956 13.5104 91.2695 13.6406C91.2565 13.7057 91.237 13.8099 91.2109 13.9531C91.1849 14.0964 91.1589 14.2526 91.1328 14.4219C91.1068 14.5781 91.0807 14.7279 91.0547 14.8711C91.0286 15.0143 91.0156 15.112 91.0156 15.1641C91.1328 15.1901 91.25 15.2292 91.3672 15.2812C91.4844 15.3333 91.543 15.418 91.543 15.5352C91.543 15.6654 91.4909 15.7695 91.3867 15.8477C91.2956 15.9258 91.1849 15.9974 91.0547 16.0625C90.9245 16.1276 90.8008 16.2057 90.6836 16.2969C90.5794 16.388 90.5208 16.5182 90.5078 16.6875C90.4818 16.8438 90.4362 17.1302 90.3711 17.5469C90.306 17.9505 90.2279 18.3867 90.1367 18.8555C90.0586 19.3112 89.9805 19.7409 89.9023 20.1445C89.8372 20.5482 89.7852 20.8281 89.7461 20.9844C89.7331 21.0234 89.707 21.0951 89.668 21.1992C89.6289 21.3034 89.5833 21.4076 89.5312 21.5117C89.4792 21.6159 89.4271 21.7135 89.375 21.8047C89.3229 21.8958 89.2839 21.9609 89.2578 22C88.9453 21.9349 88.6914 21.8568 88.4961 21.7656C88.3008 21.6615 88.2031 21.4466 88.2031 21.1211ZM87.8711 13.6211C87.7148 13.6211 87.4935 13.7318 87.207 13.9531C86.9336 14.1745 86.6602 14.4349 86.3867 14.7344C86.1133 15.0208 85.8724 15.3138 85.6641 15.6133C85.4557 15.8997 85.3516 16.1146 85.3516 16.2578C85.4297 16.2578 85.5794 16.2578 85.8008 16.2578C86.0352 16.2448 86.276 16.2383 86.5234 16.2383C86.7839 16.2253 87.0247 16.2122 87.2461 16.1992C87.4805 16.1862 87.6432 16.1797 87.7344 16.1797C87.7865 16.1797 87.8646 16.1667 87.9688 16.1406C88.0859 16.1146 88.1966 16.0885 88.3008 16.0625C88.4049 16.0365 88.4961 16.0104 88.5742 15.9844C88.6654 15.9583 88.7174 15.9388 88.7305 15.9258C88.7435 15.9258 88.75 15.8867 88.75 15.8086C88.75 15.7174 88.75 15.6458 88.75 15.5938C88.75 15.4896 88.7305 15.3268 88.6914 15.1055C88.6654 14.8841 88.6133 14.6628 88.5352 14.4414C88.4701 14.2201 88.3789 14.0312 88.2617 13.875C88.1576 13.7057 88.0273 13.6211 87.8711 13.6211ZM82.3828 13.6406C82.3828 13.8229 82.4479 14.0312 82.5781 14.2656C82.7083 14.5 82.8711 14.7214 83.0664 14.9297C83.2617 15.138 83.4701 15.3138 83.6914 15.457C83.9128 15.6003 84.1211 15.6719 84.3164 15.6719C84.4987 15.6719 84.7135 15.5612 84.9609 15.3398C85.2083 15.1185 85.4427 14.8646 85.6641 14.5781C85.8984 14.2786 86.0938 13.9922 86.25 13.7188C86.4062 13.4453 86.4844 13.2565 86.4844 13.1523C86.4844 12.931 86.4062 12.7682 86.25 12.6641C86.1068 12.5469 85.931 12.4688 85.7227 12.4297C85.5273 12.3776 85.319 12.3516 85.0977 12.3516C84.8763 12.3516 84.694 12.3516 84.5508 12.3516C84.3685 12.3516 84.1471 12.3711 83.8867 12.4102C83.6393 12.4362 83.4049 12.4948 83.1836 12.5859C82.9622 12.6771 82.7734 12.8073 82.6172 12.9766C82.4609 13.1458 82.3828 13.3672 82.3828 13.6406ZM88.2422 12.6445C88.5286 12.9831 88.7956 13.3477 89.043 13.7383C89.2904 14.1289 89.5247 14.526 89.7461 14.9297L91.4844 8.67969L88.2422 12.6445ZM92.5781 20.2227C92.5781 20.1315 92.5846 19.9948 92.5977 19.8125C92.6237 19.6172 92.6497 19.4284 92.6758 19.2461C92.7018 19.0638 92.7279 18.901 92.7539 18.7578C92.7799 18.6016 92.806 18.5039 92.832 18.4648L96.3867 11.3555C96.4388 11.2513 96.5365 11.1081 96.6797 10.9258C96.8359 10.7305 96.9987 10.5352 97.168 10.3398C97.3503 10.1315 97.526 9.94271 97.6953 9.77344C97.8776 9.59115 98.0273 9.44792 98.1445 9.34375C98.2357 9.36979 98.3008 9.41536 98.3398 9.48047C98.3789 9.54557 98.4049 9.6237 98.418 9.71484C98.431 9.79297 98.431 9.87109 98.418 9.94922C98.418 10.0273 98.418 10.0924 98.418 10.1445C98.418 10.2096 98.418 10.3008 98.418 10.418C98.418 10.5352 98.4115 10.5938 98.3984 10.5938C98.2682 10.9453 98.0664 11.362 97.793 11.8438C97.5195 12.3255 97.2135 12.8398 96.875 13.3867C96.5365 13.9336 96.1849 14.5065 95.8203 15.1055C95.4688 15.6914 95.1432 16.2773 94.8438 16.8633C94.5573 17.4362 94.3164 17.9896 94.1211 18.5234C93.9388 19.0573 93.8477 19.5456 93.8477 19.9883C93.8477 20.2227 93.9128 20.4115 94.043 20.5547C94.1862 20.6849 94.3359 20.8021 94.4922 20.9062C94.6484 21.0104 94.7917 21.1146 94.9219 21.2188C95.0651 21.3229 95.1367 21.4661 95.1367 21.6484C95.1367 21.7656 95.0846 21.8568 94.9805 21.9219C94.8763 21.974 94.7526 22 94.6094 22C94.0625 22 93.5872 21.8503 93.1836 21.5508C92.7799 21.2383 92.5781 20.7956 92.5781 20.2227ZM98.9258 16.9219C99.2773 16.8828 99.6549 16.8372 100.059 16.7852C100.475 16.7201 100.898 16.6615 101.328 16.6094C101.758 16.5443 102.181 16.4922 102.598 16.4531C103.027 16.4141 103.431 16.3945 103.809 16.3945C103.913 16.3945 104.023 16.3945 104.141 16.3945C104.258 16.3815 104.368 16.3945 104.473 16.4336C104.59 16.4596 104.694 16.5117 104.785 16.5898C104.876 16.6549 104.941 16.7656 104.98 16.9219C104.902 17.0651 104.746 17.1953 104.512 17.3125C104.277 17.4167 103.997 17.5078 103.672 17.5859C103.346 17.6641 103.001 17.7292 102.637 17.7812C102.272 17.8203 101.934 17.8594 101.621 17.8984C101.309 17.9245 101.035 17.944 100.801 17.957C100.579 17.957 100.449 17.957 100.41 17.957C100.293 17.957 100.15 17.9505 99.9805 17.9375C99.8112 17.9115 99.6484 17.8789 99.4922 17.8398C99.3359 17.7878 99.1992 17.7292 99.082 17.6641C98.9779 17.599 98.9258 17.5273 98.9258 17.4492V16.9219ZM120.43 21.1016C120.43 20.3464 120.527 19.5846 120.723 18.8164C120.931 18.0352 121.185 17.2669 121.484 16.5117C121.797 15.7565 122.129 15.0273 122.48 14.3242C122.832 13.6081 123.164 12.9375 123.477 12.3125V12.0586C123.333 12.2148 123.105 12.4622 122.793 12.8008C122.493 13.1263 122.148 13.4974 121.758 13.9141C121.38 14.3307 120.977 14.7734 120.547 15.2422C120.13 15.6979 119.727 16.1341 119.336 16.5508C118.958 16.9674 118.62 17.3451 118.32 17.6836C118.021 18.0091 117.799 18.25 117.656 18.4062C117.513 18.5625 117.376 18.7969 117.246 19.1094C117.116 19.4089 116.973 19.7148 116.816 20.0273C116.66 20.3398 116.484 20.6133 116.289 20.8477C116.107 21.082 115.898 21.1992 115.664 21.1992C115.469 21.1992 115.312 21.1797 115.195 21.1406C115.091 21.1016 115.013 21.043 114.961 20.9648C114.909 20.8737 114.876 20.763 114.863 20.6328C114.85 20.5026 114.844 20.3464 114.844 20.1641C114.844 19.2005 114.98 18.2695 115.254 17.3711C115.54 16.4596 115.84 15.5352 116.152 14.5977V14.3438C116.126 14.3698 116.081 14.4154 116.016 14.4805C115.951 14.5326 115.911 14.5716 115.898 14.5977C115.586 15.0664 115.267 15.5742 114.941 16.1211C114.616 16.6549 114.277 17.1888 113.926 17.7227C113.574 18.2435 113.197 18.7448 112.793 19.2266C112.389 19.7083 111.953 20.138 111.484 20.5156C111.016 20.8802 110.501 21.1732 109.941 21.3945C109.395 21.6159 108.789 21.7266 108.125 21.7266C107.982 21.7266 107.786 21.7201 107.539 21.707C107.305 21.694 107.07 21.6549 106.836 21.5898C106.615 21.5247 106.419 21.4206 106.25 21.2773C106.094 21.1341 106.016 20.9323 106.016 20.6719C106.016 20.5677 106.074 20.4375 106.191 20.2812C106.322 20.112 106.432 19.9948 106.523 19.9297C106.706 20.2292 106.855 20.431 106.973 20.5352C107.103 20.6263 107.285 20.6719 107.52 20.6719C107.91 20.6719 108.32 20.6133 108.75 20.4961C109.193 20.3659 109.616 20.1966 110.02 19.9883C110.436 19.7799 110.827 19.5391 111.191 19.2656C111.556 18.9922 111.862 18.7057 112.109 18.4062C112.305 18.1458 112.539 17.8138 112.812 17.4102C113.099 16.9935 113.398 16.5443 113.711 16.0625C114.036 15.5677 114.368 15.0664 114.707 14.5586C115.046 14.0508 115.371 13.569 115.684 13.1133C116.009 12.6445 116.309 12.2279 116.582 11.8633C116.855 11.4987 117.09 11.2253 117.285 11.043C117.467 11.043 117.604 11.0755 117.695 11.1406C117.786 11.1927 117.852 11.2708 117.891 11.375C117.93 11.4792 117.949 11.6029 117.949 11.7461C117.949 11.8893 117.949 12.0391 117.949 12.1953C117.949 12.7422 117.865 13.276 117.695 13.7969C117.539 14.3177 117.363 14.8255 117.168 15.3203C116.973 15.8021 116.79 16.2773 116.621 16.7461C116.465 17.2148 116.387 17.6771 116.387 18.1328C116.387 18.1589 116.387 18.2044 116.387 18.2695C116.4 18.3346 116.406 18.3802 116.406 18.4062C117.63 17.0521 118.685 15.8802 119.57 14.8906C120.456 13.901 121.204 13.0612 121.816 12.3711C122.441 11.668 122.949 11.1016 123.34 10.6719C123.73 10.2292 124.043 9.89062 124.277 9.65625C124.512 9.40885 124.688 9.23958 124.805 9.14844C124.935 9.05729 125.039 9.01172 125.117 9.01172C125.247 9.01172 125.345 9.05078 125.41 9.12891C125.475 9.20703 125.514 9.29818 125.527 9.40234C125.553 9.50651 125.56 9.61719 125.547 9.73438C125.547 9.85156 125.547 9.94922 125.547 10.0273C125.547 10.5742 125.443 11.1341 125.234 11.707C125.039 12.2669 124.785 12.8464 124.473 13.4453C124.173 14.0312 123.841 14.6302 123.477 15.2422C123.125 15.8411 122.793 16.4596 122.48 17.0977C122.181 17.7357 121.927 18.3867 121.719 19.0508C121.523 19.7018 121.426 20.3724 121.426 21.0625C121.426 21.4141 121.432 21.6745 121.445 21.8438C121.458 22 121.497 22.1302 121.562 22.2344C121.628 22.3516 121.732 22.4688 121.875 22.5859C122.018 22.7161 122.22 22.918 122.48 23.1914C122.181 23.3607 121.888 23.4258 121.602 23.3867C121.328 23.3607 121.087 23.25 120.879 23.0547C120.684 22.8594 120.54 22.5924 120.449 22.2539C120.358 21.9154 120.352 21.5312 120.43 21.1016ZM124.609 21.0234C124.609 20.8281 124.668 20.5547 124.785 20.2031C124.902 19.8385 125.052 19.4479 125.234 19.0312C125.43 18.6146 125.645 18.1914 125.879 17.7617C126.126 17.332 126.374 16.9414 126.621 16.5898C126.868 16.2383 127.103 15.9518 127.324 15.7305C127.546 15.5091 127.741 15.3984 127.91 15.3984C128.275 15.3984 128.457 15.5742 128.457 15.9258C128.457 16.082 128.424 16.2122 128.359 16.3164C128.307 16.4206 128.242 16.5182 128.164 16.6094C128.086 16.7005 128.001 16.7917 127.91 16.8828C127.819 16.9609 127.741 17.0586 127.676 17.1758C127.559 17.3711 127.415 17.638 127.246 17.9766C127.077 18.3151 126.908 18.6471 126.738 18.9727C126.582 19.2852 126.445 19.5651 126.328 19.8125C126.211 20.0599 126.152 20.1966 126.152 20.2227V20.4766C126.66 20.3854 127.148 20.1706 127.617 19.832C128.086 19.4805 128.529 19.0703 128.945 18.6016C129.375 18.1328 129.779 17.6445 130.156 17.1367C130.547 16.6159 130.911 16.1406 131.25 15.7109C131.589 15.2682 131.908 14.9036 132.207 14.6172C132.507 14.3307 132.786 14.1875 133.047 14.1875C133.047 14.6693 132.949 15.1055 132.754 15.4961C132.559 15.8867 132.344 16.2708 132.109 16.6484C131.888 17.026 131.68 17.4167 131.484 17.8203C131.289 18.2109 131.191 18.6536 131.191 19.1484C131.191 19.3568 131.315 19.5456 131.562 19.7148C131.823 19.8711 132.116 20.0078 132.441 20.125C132.78 20.2292 133.105 20.3138 133.418 20.3789C133.73 20.444 133.945 20.4831 134.062 20.4961V21.0039C133.763 21.0169 133.392 21.0234 132.949 21.0234C132.507 21.0104 132.064 20.9583 131.621 20.8672C131.178 20.776 130.775 20.6263 130.41 20.418C130.059 20.1966 129.824 19.8776 129.707 19.4609C129.368 19.6823 129.043 19.9427 128.73 20.2422C128.418 20.5417 128.092 20.8216 127.754 21.082C127.428 21.3424 127.083 21.5638 126.719 21.7461C126.354 21.9284 125.957 22.0195 125.527 22.0195C125.267 22.0195 125.046 21.9089 124.863 21.6875C124.694 21.4661 124.609 21.2448 124.609 21.0234ZM133.867 20.1055C133.867 19.7279 133.939 19.3503 134.082 18.9727C134.225 18.5951 134.395 18.224 134.59 17.8594C134.785 17.4818 134.98 17.1107 135.176 16.7461C135.384 16.3815 135.54 16.0234 135.645 15.6719C135.397 15.8151 135.182 15.8997 135 15.9258C134.831 15.9388 134.622 15.9453 134.375 15.9453C134.349 15.9453 134.264 15.9453 134.121 15.9453C133.991 15.9323 133.906 15.9258 133.867 15.9258C133.945 15.6393 134.089 15.3854 134.297 15.1641C134.505 14.9297 134.74 14.7344 135 14.5781C135.273 14.4089 135.553 14.2721 135.84 14.168C136.139 14.0508 136.406 13.9596 136.641 13.8945C137.031 13.2826 137.35 12.6706 137.598 12.0586C137.845 11.4336 138.092 10.8281 138.34 10.2422C138.6 9.64323 138.9 9.07682 139.238 8.54297C139.59 7.99609 140.059 7.49479 140.645 7.03906L140.742 7.78125L138.301 13.5039C138.444 13.4648 138.62 13.4258 138.828 13.3867C139.036 13.3477 139.245 13.3086 139.453 13.2695C139.674 13.2305 139.883 13.1979 140.078 13.1719C140.286 13.1328 140.462 13.0938 140.605 13.0547C140.618 13.0547 140.658 13.0547 140.723 13.0547C140.788 13.0417 140.84 13.0352 140.879 13.0352C141.061 13.0352 141.211 13.0677 141.328 13.1328C141.445 13.1979 141.543 13.3411 141.621 13.5625C140.736 13.8229 139.935 14.0964 139.219 14.3828C138.503 14.6693 137.878 15.0469 137.344 15.5156C136.823 15.9714 136.393 16.5573 136.055 17.2734C135.729 17.9766 135.501 18.8815 135.371 19.9883C135.371 20.2227 135.384 20.4375 135.41 20.6328C135.436 20.8281 135.599 20.9453 135.898 20.9844C136.198 20.9844 136.478 20.9258 136.738 20.8086C136.999 20.6914 137.253 20.5677 137.5 20.4375C137.747 20.2943 137.995 20.1641 138.242 20.0469C138.503 19.9297 138.783 19.8711 139.082 19.8711C139.082 20.1836 138.945 20.4701 138.672 20.7305C138.398 20.9909 138.066 21.2188 137.676 21.4141C137.298 21.6094 136.908 21.7591 136.504 21.8633C136.1 21.9674 135.768 22.0195 135.508 22.0195C135.247 22.0195 135.013 21.9674 134.805 21.8633C134.596 21.7591 134.421 21.6224 134.277 21.4531C134.147 21.2708 134.043 21.0625 133.965 20.8281C133.9 20.5938 133.867 20.3529 133.867 20.1055ZM139.258 20.7305C139.375 19.9883 139.596 19.3047 139.922 18.6797C140.247 18.0547 140.618 17.5143 141.035 17.0586C141.465 16.5898 141.927 16.2057 142.422 15.9062C142.917 15.6068 143.398 15.418 143.867 15.3398C144.336 15.2487 144.766 15.2682 145.156 15.3984C145.56 15.5286 145.885 15.7891 146.133 16.1797C146.133 16.4792 146.061 16.7656 145.918 17.0391C145.788 17.3125 145.638 17.5859 145.469 17.8594C145.312 18.1328 145.163 18.4128 145.02 18.6992C144.889 18.9857 144.824 19.2917 144.824 19.6172C144.824 19.9557 144.896 20.2292 145.039 20.4375C145.195 20.6328 145.462 20.7305 145.84 20.7305C146.152 20.7305 146.452 20.6849 146.738 20.5938C147.038 20.5026 147.337 20.457 147.637 20.457C147.689 20.457 147.773 20.4635 147.891 20.4766C148.021 20.4766 148.105 20.4766 148.145 20.4766C147.988 20.6979 147.786 20.8867 147.539 21.043C147.292 21.1992 147.031 21.3359 146.758 21.4531C146.484 21.5573 146.198 21.6354 145.898 21.6875C145.612 21.7396 145.345 21.7656 145.098 21.7656C144.863 21.7656 144.655 21.7135 144.473 21.6094C144.29 21.5052 144.134 21.3685 144.004 21.1992C143.874 21.0299 143.77 20.8411 143.691 20.6328C143.626 20.4115 143.594 20.1966 143.594 19.9883C143.398 20.2096 143.184 20.444 142.949 20.6914C142.728 20.9258 142.487 21.1406 142.227 21.3359C141.979 21.5312 141.706 21.694 141.406 21.8242C141.12 21.9544 140.82 22.0195 140.508 22.0195C140.169 22.0195 139.876 21.8958 139.629 21.6484C139.382 21.388 139.258 21.082 139.258 20.7305ZM140.547 20.125C140.547 20.2292 140.547 20.3464 140.547 20.4766C140.56 20.6068 140.645 20.6914 140.801 20.7305C141.126 20.6523 141.497 20.4831 141.914 20.2227C142.331 19.9492 142.721 19.6367 143.086 19.2852C143.451 18.9206 143.757 18.5365 144.004 18.1328C144.251 17.7161 144.375 17.319 144.375 16.9414C144.375 16.9154 144.368 16.8763 144.355 16.8242C144.355 16.7591 144.355 16.7135 144.355 16.6875C143.913 16.6875 143.464 16.7786 143.008 16.9609C142.552 17.1432 142.142 17.3971 141.777 17.7227C141.413 18.0352 141.113 18.3997 140.879 18.8164C140.658 19.2331 140.547 19.6693 140.547 20.125ZM147.441 20.7305C147.441 20.5482 147.461 20.3919 147.5 20.2617C147.539 20.1185 147.611 19.9362 147.715 19.7148C147.806 19.5846 147.969 19.3372 148.203 18.9727C148.451 18.6081 148.704 18.224 148.965 17.8203C149.238 17.4167 149.492 17.0391 149.727 16.6875C149.974 16.3229 150.143 16.069 150.234 15.9258C150.352 15.7565 150.443 15.6654 150.508 15.6523C150.573 15.6393 150.697 15.6328 150.879 15.6328C150.996 15.6328 151.12 15.6393 151.25 15.6523C151.393 15.6654 151.484 15.7565 151.523 15.9258C151.341 16.3685 151.094 16.7917 150.781 17.1953C150.482 17.5859 150.182 17.9766 149.883 18.3672C149.596 18.7578 149.342 19.1615 149.121 19.5781C148.9 19.9818 148.789 20.418 148.789 20.8867C148.841 20.8867 148.919 20.8932 149.023 20.9062C149.141 20.9193 149.264 20.9323 149.395 20.9453C149.525 20.9583 149.642 20.9714 149.746 20.9844C149.863 20.9974 149.948 20.9974 150 20.9844C150.078 20.9714 150.208 20.9453 150.391 20.9062C150.586 20.8542 150.788 20.8021 150.996 20.75C151.217 20.6979 151.426 20.6458 151.621 20.5938C151.816 20.5417 151.953 20.5026 152.031 20.4766C152.031 20.5026 152.031 20.5482 152.031 20.6133C152.044 20.6654 152.051 20.7044 152.051 20.7305C152.051 20.9909 151.927 21.2057 151.68 21.375C151.445 21.5443 151.165 21.681 150.84 21.7852C150.527 21.8763 150.202 21.9414 149.863 21.9805C149.538 22.0065 149.284 22.0195 149.102 22.0195C148.906 22.0195 148.704 22 148.496 21.9609C148.301 21.9089 148.125 21.8307 147.969 21.7266C147.812 21.6224 147.682 21.4922 147.578 21.3359C147.487 21.1667 147.441 20.9648 147.441 20.7305ZM153.125 9.28516C153.294 9.28516 153.451 9.29167 153.594 9.30469C153.737 9.31771 153.861 9.35026 153.965 9.40234C154.069 9.45443 154.154 9.53255 154.219 9.63672C154.284 9.74089 154.316 9.88411 154.316 10.0664C154.316 10.1445 154.316 10.2292 154.316 10.3203C154.316 10.4115 154.303 10.5026 154.277 10.5938C154.264 10.6719 154.232 10.7435 154.18 10.8086C154.128 10.8607 154.043 10.8867 153.926 10.8867C153.743 10.8867 153.594 10.8216 153.477 10.6914C153.372 10.5612 153.294 10.4115 153.242 10.2422C153.19 10.0599 153.158 9.8776 153.145 9.69531C153.132 9.51302 153.125 9.3763 153.125 9.28516ZM156.504 20.4961C156.504 20.1055 156.582 19.7474 156.738 19.4219C156.908 19.0833 157.09 18.7643 157.285 18.4648C157.48 18.1654 157.656 17.8659 157.812 17.5664C157.982 17.2669 158.066 16.9479 158.066 16.6094C158.066 16.5312 158.06 16.4401 158.047 16.3359C158.047 16.2188 158.034 16.1081 158.008 16.0039C157.995 15.8997 157.956 15.8151 157.891 15.75C157.839 15.6719 157.767 15.6328 157.676 15.6328C157.663 15.6328 157.637 15.6393 157.598 15.6523C157.572 15.6523 157.559 15.6589 157.559 15.6719C157.376 15.9193 157.155 16.1992 156.895 16.5117C156.647 16.8112 156.38 17.1107 156.094 17.4102C155.807 17.7096 155.527 17.9961 155.254 18.2695C154.98 18.543 154.733 18.7708 154.512 18.9531C154.355 19.0964 154.141 19.2917 153.867 19.5391C153.607 19.7865 153.34 20.0339 153.066 20.2812C152.806 20.5156 152.572 20.724 152.363 20.9062C152.168 21.0885 152.057 21.1797 152.031 21.1797L151.133 20.418C151.25 20.418 151.367 20.3919 151.484 20.3398C151.589 20.2878 151.693 20.2292 151.797 20.1641C152.578 19.6432 153.281 19.0443 153.906 18.3672C154.544 17.6901 155.169 16.9609 155.781 16.1797C155.807 16.1406 155.872 16.0299 155.977 15.8477C156.094 15.6523 156.217 15.4375 156.348 15.2031C156.478 14.9557 156.608 14.7148 156.738 14.4805C156.868 14.2331 156.966 14.0378 157.031 13.8945C157.109 13.7253 157.155 13.5885 157.168 13.4844C157.194 13.3802 157.214 13.3021 157.227 13.25C157.253 13.1849 157.292 13.1393 157.344 13.1133C157.396 13.0872 157.507 13.0742 157.676 13.0742C157.702 13.0742 157.76 13.0807 157.852 13.0938C157.956 13.1068 158.021 13.1198 158.047 13.1328C158.216 13.4844 158.366 13.7969 158.496 14.0703C158.626 14.3438 158.737 14.6042 158.828 14.8516C158.919 15.0859 158.984 15.3268 159.023 15.5742C159.076 15.8216 159.102 16.0951 159.102 16.3945C158.932 16.8242 158.743 17.2669 158.535 17.7227C158.327 18.1654 158.151 18.5885 158.008 18.9922C157.865 19.3958 157.773 19.7604 157.734 20.0859C157.708 20.4115 157.78 20.6719 157.949 20.8672C158.132 21.0495 158.431 21.1471 158.848 21.1602C159.277 21.1732 159.883 21.0625 160.664 20.8281C160.872 20.9323 160.892 21.0625 160.723 21.2188C160.553 21.362 160.293 21.4987 159.941 21.6289C159.603 21.7591 159.225 21.8698 158.809 21.9609C158.405 22.0391 158.066 22.0586 157.793 22.0195C157.546 22.0195 157.337 21.9805 157.168 21.9023C157.012 21.8112 156.882 21.694 156.777 21.5508C156.686 21.4076 156.615 21.2448 156.562 21.0625C156.523 20.8802 156.504 20.6914 156.504 20.4961ZM159.668 20.7305C159.668 20.5482 159.688 20.3919 159.727 20.2617C159.766 20.1185 159.837 19.9362 159.941 19.7148C160.033 19.5846 160.195 19.3372 160.43 18.9727C160.677 18.6081 160.931 18.224 161.191 17.8203C161.465 17.4167 161.719 17.0391 161.953 16.6875C162.201 16.3229 162.37 16.069 162.461 15.9258C162.578 15.7565 162.669 15.6654 162.734 15.6523C162.799 15.6393 162.923 15.6328 163.105 15.6328C163.223 15.6328 163.346 15.6393 163.477 15.6523C163.62 15.6654 163.711 15.7565 163.75 15.9258C163.568 16.3685 163.32 16.7917 163.008 17.1953C162.708 17.5859 162.409 17.9766 162.109 18.3672C161.823 18.7578 161.569 19.1615 161.348 19.5781C161.126 19.9818 161.016 20.418 161.016 20.8867C161.068 20.8867 161.146 20.8932 161.25 20.9062C161.367 20.9193 161.491 20.9323 161.621 20.9453C161.751 20.9583 161.868 20.9714 161.973 20.9844C162.09 20.9974 162.174 20.9974 162.227 20.9844C162.305 20.9714 162.435 20.9453 162.617 20.9062C162.812 20.8542 163.014 20.8021 163.223 20.75C163.444 20.6979 163.652 20.6458 163.848 20.5938C164.043 20.5417 164.18 20.5026 164.258 20.4766C164.258 20.5026 164.258 20.5482 164.258 20.6133C164.271 20.6654 164.277 20.7044 164.277 20.7305C164.277 20.9909 164.154 21.2057 163.906 21.375C163.672 21.5443 163.392 21.681 163.066 21.7852C162.754 21.8763 162.428 21.9414 162.09 21.9805C161.764 22.0065 161.51 22.0195 161.328 22.0195C161.133 22.0195 160.931 22 160.723 21.9609C160.527 21.9089 160.352 21.8307 160.195 21.7266C160.039 21.6224 159.909 21.4922 159.805 21.3359C159.714 21.1667 159.668 20.9648 159.668 20.7305ZM165.352 9.28516C165.521 9.28516 165.677 9.29167 165.82 9.30469C165.964 9.31771 166.087 9.35026 166.191 9.40234C166.296 9.45443 166.38 9.53255 166.445 9.63672C166.51 9.74089 166.543 9.88411 166.543 10.0664C166.543 10.1445 166.543 10.2292 166.543 10.3203C166.543 10.4115 166.53 10.5026 166.504 10.5938C166.491 10.6719 166.458 10.7435 166.406 10.8086C166.354 10.8607 166.27 10.8867 166.152 10.8867C165.97 10.8867 165.82 10.8216 165.703 10.6914C165.599 10.5612 165.521 10.4115 165.469 10.2422C165.417 10.0599 165.384 9.8776 165.371 9.69531C165.358 9.51302 165.352 9.3763 165.352 9.28516Z" fill="black"/>
</svg>
