<svg width="61" height="61" viewBox="0 0 61 61" fill="none" xmlns="http://www.w3.org/2000/svg">
<circle cx="30.5" cy="30.5" r="30" stroke="#D97706"/>
<path d="M27.7137 6.26036C26.3631 6.63554 25.05 7.32961 23.8307 8.32382C23.2491 8.79279 22.6114 9.16797 22.3862 9.16797C22.1236 9.16797 21.936 9.35556 21.786 9.73073C21.6734 10.0309 21.4858 10.2935 21.3545 10.2935C21.242 10.2935 20.9981 10.4436 20.8293 10.6499C20.5666 10.9313 20.5479 11.0814 20.7355 11.4753C20.9043 11.8505 20.8668 12.1319 20.5291 13.0323C20.304 13.6513 20.0789 14.7768 20.0226 15.5459C19.9476 16.3151 19.7413 17.328 19.5349 17.797C17.9029 21.53 15.6331 29.9339 14.9203 34.8487L14.6014 36.9872L12.7818 38.1315C11.7875 38.7693 10.6808 39.5572 10.3244 39.8948C9.19884 40.9641 8.54228 43.3652 8.12959 47.9611C7.90449 50.4935 7.96076 51 8.39221 51C8.5798 51 8.69235 50.3059 8.86118 48.3175C9.12381 45.2786 9.63029 42.6148 10.1743 41.3768C10.4932 40.6827 10.8309 40.345 12.3878 39.3133C14.5451 37.8876 22.3487 33.5544 22.7802 33.5544C22.9303 33.5544 23.2304 33.8545 23.4367 34.2297C23.8682 35.0363 24.9562 36.0305 25.9504 36.5558C28.4078 37.7938 32.6848 37.8126 35.161 36.5558C36.1177 36.068 37.5621 34.7174 38.0873 33.817C38.2937 33.4793 38.4062 33.5168 40.4322 34.5298C44.409 36.5182 49.2675 39.4071 50.4118 40.4763C51.331 41.3205 52.1376 44.7721 52.3627 48.7865C52.4753 50.8312 52.5128 51 52.8505 51C53.2069 51 53.2256 50.9062 53.1131 48.6927C53.0005 46.179 52.419 42.8962 51.8375 41.3017C51.3873 40.1387 50.6182 39.4446 48.0107 37.8689C46.4537 36.9309 46.435 36.9122 46.3224 36.0305C45.5346 30.1778 43.6962 22.9181 41.7828 18.0784C41.5765 17.5531 41.3514 16.5589 41.2763 15.8273C41.2013 15.1145 40.9387 13.9139 40.6948 13.1636C40.3196 12.0756 40.2633 11.7192 40.4509 11.4378C40.7136 11.0063 40.5447 10.5186 40.0382 10.331C39.8131 10.256 39.5318 9.97459 39.4192 9.73073C39.2879 9.46811 38.9877 9.22424 38.7251 9.20549C38.4813 9.16797 37.881 8.79279 37.412 8.3801C36.3803 7.46092 34.7858 6.63554 33.3414 6.26036C32.0095 5.90394 29.0268 5.9227 27.7137 6.26036ZM33.2851 7.04823C34.9921 7.49844 37.9748 9.43059 37.9748 10.0684C37.9748 11.1001 24.975 11.3065 23.3242 10.2935C22.7239 9.91832 25.2188 7.96741 27.226 7.25457C29.3082 6.52298 31.1278 6.44795 33.2851 7.04823ZM24.4685 11.344C27.2823 11.9818 35.3298 11.8505 37.7684 11.1189C38.5188 10.8938 38.6688 10.8938 38.894 11.1376C39.044 11.2877 39.1378 11.4565 39.0815 11.4941C39.044 11.5316 38.2937 11.7379 37.412 11.9255C35.161 12.4132 25.8379 12.4132 23.7369 11.9255C22.9678 11.7567 22.3112 11.5878 22.2737 11.5503C22.2362 11.5128 22.2737 11.3252 22.33 11.1564C22.4238 10.9313 22.5738 10.8563 22.8552 10.95C23.0616 11.0063 23.7932 11.1939 24.4685 11.344ZM25.7065 12.9197C27.151 13.0698 29.3833 13.1261 32.1408 13.051C35.855 12.9572 37.0931 12.8259 39.2879 12.3194C39.4755 12.2819 39.6818 12.6196 39.982 13.4825C40.6198 15.3208 40.5635 15.5459 39.6631 14.7206C38.6688 13.8201 38.2186 13.7451 36.9055 14.2328C32.8912 15.7335 28.0889 15.7335 24.2996 14.2328C23.0991 13.7639 22.6301 13.8389 21.6171 14.6455C21.2044 14.9644 20.8668 15.1895 20.8293 15.152C20.7167 15.0207 21.2982 13.0323 21.5609 12.6196C21.8235 12.2256 21.8798 12.2069 22.6489 12.4508C23.1178 12.5821 24.4872 12.8072 25.7065 12.9197ZM27.0197 15.8273C29.7772 16.3901 33.8666 16.1275 36.5491 15.1895L37.6559 14.7956L37.5433 19.898C37.4683 22.7118 37.3182 25.5256 37.2244 26.1259C37.0181 27.4015 36.0614 28.996 34.4294 30.7781C32.4409 32.9541 30.1899 33.4043 28.2202 32.0349C27.151 31.2845 25.5565 29.4837 24.6561 28.0018C23.9057 26.7449 23.7932 25.882 23.6056 19.5416L23.4743 14.7956L24.5623 15.1708C25.1438 15.3771 26.2506 15.6585 27.0197 15.8273ZM22.9115 20.6671C23.0616 24.6815 23.2116 26.5761 23.3992 27.1389C23.6431 27.8705 23.6431 28.1518 23.2867 30.1965C22.9678 32.0349 22.8177 32.5226 22.5176 32.7102C21.2232 33.4793 15.6143 36.3869 15.5393 36.3119C15.3892 36.1618 16.2146 31.6785 16.9837 28.527C17.8279 25.0942 19.2911 20.442 20.2665 18.0971C20.9043 16.5589 22.0298 14.9832 22.48 14.9832C22.6489 14.9832 22.7614 16.3901 22.9115 20.6671ZM39.5693 15.7523C39.9444 16.1837 40.4884 17.0466 40.7886 17.7032C42.3268 21.1361 44.6341 29.7463 45.4408 35.1113C45.5908 36.0868 45.5721 36.1993 45.2907 36.1431C45.1219 36.1055 43.4898 35.2802 41.6702 34.3047L38.3687 32.5226L37.956 30.3466C37.5808 28.2456 37.5621 28.1143 37.8622 26.9138C38.1061 25.9946 38.1999 24.4376 38.2749 20.5733C38.3312 17.7595 38.4062 15.3396 38.4625 15.2083C38.5751 14.8144 38.8377 14.9457 39.5693 15.7523ZM26.4381 31.4721C27.845 32.9541 28.6892 33.4043 30.34 33.5168C31.4842 33.5919 31.7093 33.5544 32.8161 33.0104C33.9792 32.4288 34.4481 31.9974 36.3428 29.7088C36.6054 29.3899 36.868 29.1836 36.9243 29.2398C36.9618 29.2961 37.1494 30.159 37.3182 31.172L37.6371 32.9916L37.1494 33.817C36.5679 34.7924 35.4799 35.6553 34.0354 36.2181C33.1538 36.5745 32.6473 36.6308 30.5651 36.6308C28.5016 36.6308 27.9576 36.5558 27.0759 36.2181C25.8003 35.7116 24.4122 34.5298 23.9057 33.5356C23.5305 32.8415 23.5305 32.804 23.9057 31.0032C24.1121 30.0089 24.2809 29.146 24.2809 29.071C24.2809 29.0147 24.506 29.2586 24.7874 29.615C25.0687 29.9714 25.8003 30.8156 26.4381 31.4721Z" fill="#D97706"/>
</svg>
